<svg width="141" height="180" viewBox="0 0 141 180" fill="none" xmlns="http://www.w3.org/2000/svg">
<path d="M108.261 23.9829C108.318 23.8042 108.359 23.6824 108.407 23.5321C108.513 23.2438 108.46 23.126 108.269 23.2844C107.952 23.5118 107.818 23.3616 107.656 23.2885C107.477 23.2072 107.347 23.0367 107.132 23.0204C106.925 23.0042 106.827 22.7808 106.523 22.9351C106.397 22.996 106.307 22.927 106.324 22.7524C106.356 22.399 105.909 22.9108 105.999 22.4518C106.06 22.131 105.661 22.5168 105.682 22.2163C105.178 22.4843 105.012 22.1269 104.707 22.0335C104.382 21.936 104.118 21.7248 103.821 21.5746C103.716 21.5218 103.602 21.4852 103.432 21.5462C103.208 21.6274 103.078 21.5137 102.924 21.4527C102.7 21.3634 102.562 21.1197 102.172 21.3431C102.034 21.4243 102.055 21.1441 101.99 21.0466C101.921 20.9451 101.888 20.9735 101.486 21.4446C101.425 21.3147 101.336 21.2253 101.307 21.0466C101.275 20.8435 101.007 21.136 100.905 21.0669C100.799 20.9979 100.535 21.2212 100.588 20.8517C100.349 21.0629 100.336 20.8517 100.275 20.7095C100.182 20.4861 99.9343 20.5389 99.6012 20.8314C99.6337 20.6324 99.6987 20.3927 99.6825 20.2871C99.6581 20.145 99.4631 20.4293 99.2925 20.6608C99.191 20.4577 99.1179 20.214 98.7685 20.4618C98.472 20.673 98.2811 20.5958 98.0943 20.5471C98.0293 20.5308 97.9968 20.5186 97.8506 20.7258C97.7775 20.8314 97.6475 20.9166 97.6597 20.8598C97.7775 20.2425 97.4363 20.474 97.3063 20.3156C97.1844 20.1694 97.0504 20.0313 96.7214 20.3075C96.4899 20.5024 96.5995 19.9947 96.3558 20.1694C96.169 20.3034 96.1649 20.0313 96.1405 19.8242C96.1202 19.6698 96.0106 19.6739 95.7668 20.1084C95.6287 19.9704 95.4947 19.8485 95.3688 19.7104C95.2104 19.5358 95.0926 19.2718 94.8895 19.1784C94.7026 19.0931 94.4183 19.2028 94.199 19.1865C94.0406 19.1743 93.9228 19.0728 93.7765 19.0363C93.6303 18.9997 93.5694 18.7723 93.2932 19.0322C93.017 19.2921 93.1754 18.5936 92.8504 18.9672L92.1884 18.6992C92.1193 18.6707 92.0259 18.691 91.9812 18.6179C91.8918 18.4677 91.5019 18.9713 91.6075 18.4149C91.6847 18.0006 91.3679 18.3052 91.506 17.7813C91.5385 17.6554 91.4938 17.6148 91.4816 17.5458C91.4572 17.4199 91.1485 17.8666 91.3232 17.3305C91.4329 16.9934 91.2948 17.0706 91.3069 16.8959C91.3272 16.6766 91.3719 16.4086 91.445 16.1162C91.5547 15.6776 91.7578 15.2024 92.0299 14.8003C92.3793 14.2886 92.7286 13.7972 93.0779 13.3057C93.1266 13.2367 93.1957 13.1717 93.2079 13.2002C93.3541 13.5372 93.7887 13.123 94.2396 12.7575C94.2518 13.058 94.2843 13.387 94.5402 13.2083C94.7636 13.0499 94.7067 13.4885 94.9667 13.2367C95.2185 12.993 94.9667 13.8418 95.3119 13.4113C95.3282 13.7322 95.4784 13.7606 95.7303 13.5738C95.775 13.5413 95.8156 13.5413 95.8196 13.59C95.8643 14.1018 96.2461 13.8825 96.5386 13.8703C96.7214 13.8621 96.9367 13.8094 96.9326 14.1992C96.9326 14.4064 97.0869 14.3617 97.1397 14.4917C97.2129 14.6785 97.4728 14.3089 97.7246 14.0287C97.7531 14.4185 97.8871 14.6216 98.1999 14.4713C98.2608 14.4429 98.3096 14.4551 98.3299 14.5038C98.5045 14.9059 98.8823 14.91 99.1747 15.0765C99.2519 15.1212 99.3534 15.1415 99.4915 15.0521C99.7271 14.8978 99.8165 14.9912 99.8449 15.2389C99.8734 15.4989 99.9912 15.6207 100.284 15.3648C100.515 15.1618 100.665 15.1902 100.629 15.4704C100.552 16.0837 101.08 15.511 101.104 15.9009C101.421 15.5923 101.47 15.8359 101.592 15.9334C101.677 16.0025 101.742 16.1365 101.9 16.035C102.124 15.8887 102.152 16.0553 102.152 16.303C102.152 16.3842 102.172 16.4533 102.225 16.4411C102.774 16.3111 103.025 16.7619 103.452 16.8716C103.635 16.9203 103.813 16.9772 103.992 17.034C104.033 17.0462 104.081 17.0503 104.11 17.0828C104.191 17.1599 104.252 17.2737 104.341 17.3305C104.459 17.4036 104.549 17.5579 104.748 17.4483C104.971 17.3264 104.878 17.7854 105.17 17.5051C105.125 17.8463 105.613 17.2533 105.442 17.8138C106.21 17.4848 106.409 18.2159 106.953 18.3133C107.095 18.3377 107.246 18.358 107.363 18.4311C107.481 18.5002 107.558 18.6383 107.66 18.7357C107.692 18.7682 107.733 18.7966 107.798 18.7763C108.277 18.6017 108.663 18.5936 108.72 19.1743C109.203 18.7682 108.939 19.6983 109.37 19.3937C109.431 19.349 109.415 19.4911 109.435 19.5399C109.671 20.0638 109.967 20.21 110.816 20.2587C111.088 20.2709 110.922 20.8151 111.437 20.5146C111.608 20.6242 111.815 20.7095 111.795 20.9979C111.775 21.2212 111.949 21.2497 112.221 21.2009C112.364 21.1766 112.546 21.1522 112.563 21.2334C112.628 21.5624 112.981 21.6314 113.31 21.7533C113.127 22.0498 113.85 21.733 113.797 21.9279C113.663 22.3787 113.842 22.5655 114.549 22.5655C114.598 22.5655 114.342 22.7442 114.175 22.8742C114.833 22.7321 115.402 22.7077 115.15 23.0285C115.755 23.126 116.178 23.325 116.527 23.5362L116.779 23.6986L116.901 23.7799C116.901 23.8164 116.852 23.8652 116.827 23.9098C116.71 24.0885 116.6 24.2632 116.515 24.4337C116.433 24.5921 116.364 24.7465 116.434 24.8805C116.498 25.0023 116.438 25.1323 116.19 25.2988C116.003 25.4206 116.076 25.5344 116.031 25.6521C115.942 25.8999 116.226 26.1395 115.82 26.4238C115.442 26.6796 115.694 26.9639 115.426 27.236C115.166 27.5 114.971 27.7681 114.805 28.0361C114.52 28.4869 114.382 29.0068 113.96 29.4088C113.708 29.6444 113.574 29.8921 113.513 30.2089C113.497 30.2942 113.464 30.3754 113.424 30.4526C113.403 30.4892 113.379 30.5257 113.355 30.5623C113.334 30.5866 113.318 30.6029 113.298 30.6232C113.107 30.7856 112.611 30.7613 112.883 31.208C112.948 31.3136 112.737 31.2933 112.648 31.3258C112.595 31.3461 112.461 31.3258 112.489 31.3867C112.786 32.0203 112.197 32.134 112.083 32.5239C111.965 32.9178 111.722 33.2346 111.547 33.5961C111.417 33.8722 111.283 34.1443 111.1 34.388C110.938 34.6073 110.706 34.7901 110.865 35.2043C110.913 35.3262 110.747 35.3424 110.678 35.4074C110.633 35.448 110.532 35.4602 110.556 35.5374C110.593 35.6592 110.788 35.8704 110.771 35.9638C110.755 36.0572 110.515 36.0166 110.463 36.0897C110.304 36.3131 110.154 36.5446 110.065 36.8126C110.008 36.9913 110.081 37.2431 110.065 37.4462C110.044 37.6655 110.142 37.962 109.914 38.0391C109.666 38.1244 109.626 38.3275 109.512 38.4859C109.281 38.8108 108.948 39.0707 109.11 39.6312C109.142 39.7449 108.935 39.7286 108.911 39.818C108.878 39.9236 108.911 40.0657 108.935 40.1998C108.956 40.3175 109.017 40.4556 109.021 40.5612C109.021 40.6343 109.021 40.7155 108.919 40.7115C108.354 40.6993 108.436 41.0892 108.326 41.3572C108.245 41.5522 108.135 41.7309 108.44 42.1411C108.554 42.2913 108.533 42.3766 108.326 42.3279C108.03 42.2588 107.993 42.3604 107.94 42.4538L106.917 44.1433C106.86 44.2367 106.803 44.326 106.791 44.4438C106.774 44.6103 106.689 44.7281 106.571 44.8337C106.38 45.0002 106.283 45.2277 106.287 45.5119C106.291 45.8003 106.352 46.1171 105.893 46.1171C105.84 46.1171 105.8 46.1333 105.82 46.178C106.096 46.7344 105.601 46.8278 105.495 47.1568C105.389 47.4857 105.142 47.7335 104.959 48.0178L104.573 48.6432C104.504 48.761 104.39 48.8463 104.207 48.895C104.041 48.9397 104.203 49.2077 104.15 49.3377C104.098 49.4677 104.041 49.6017 103.834 49.6261C103.598 49.6504 103.919 49.9916 103.704 50.02C103.683 50.02 103.712 50.0647 103.683 50.0606C103.18 50.0159 103.314 50.3896 103.07 50.5155C102.818 50.6414 102.765 50.9013 102.611 51.0963C102.505 51.2262 102.432 51.3846 102.225 51.4455C102.038 51.5024 102.209 51.7867 101.807 51.7054C101.657 51.673 101.705 51.8192 101.673 51.8882C101.518 52.2415 101.368 52.5989 100.82 52.7005C100.755 52.7127 100.694 52.733 100.71 52.7939C100.787 53.0904 100.604 53.2163 100.357 53.3137C100.076 53.4193 100.292 53.8336 100.011 53.9514C99.7434 54.0651 99.719 54.3453 99.5647 54.5362C99.4997 54.6174 99.4591 54.7311 99.26 54.7149C99.0041 54.6946 99.0326 54.857 98.866 54.8895C98.6954 54.9261 98.667 55.0317 98.6792 55.1819C98.6954 55.385 98.5939 55.5353 98.3339 55.5556C97.9277 55.5881 97.8668 55.8358 97.7571 56.051C97.5987 56.3475 97.1357 56.4572 97.3672 56.9892C96.8148 56.8877 97.1722 57.4075 96.5792 57.2816C96.4208 57.2491 96.4411 57.371 96.3883 57.4278C96.2461 57.5862 96.3639 57.903 96.104 57.9964C95.8765 58.0817 95.8481 58.3051 95.7343 58.4675C95.5231 58.7681 95.2916 59.0564 95.1088 59.3773C95.0032 59.56 95.0398 59.824 94.8245 59.9418C94.6255 60.0474 94.5605 60.2464 94.4508 60.4129C94.333 60.5916 94.3168 60.8393 94.1096 60.9531C93.7928 61.1318 93.7928 61.5054 93.6181 61.7694C93.1876 62.4192 92.8017 63.1015 92.363 63.7472C92.2168 63.9625 92.1193 64.2062 91.7131 64.2508C91.5385 64.2711 91.6319 64.4864 91.575 64.592C91.4978 64.7301 91.5547 64.9534 91.2948 64.9778C91.2013 64.9859 91.1079 65.0022 91.0917 65.059C91.0267 65.2824 91.0917 65.5951 90.9089 65.7413C90.7261 65.8916 90.4133 65.9525 90.3321 66.1718C90.2671 66.3465 90.0721 66.4358 89.9259 66.5577C89.9015 66.578 89.7837 66.5414 89.8041 66.582C90.0924 67.1303 89.4304 67.0531 89.2557 67.2968C88.882 67.8167 88.2727 68.1862 88.3662 69.0066C88.3662 69.0432 88.3052 69.0351 88.2768 69.0513C87.7325 69.3884 87.5903 69.9814 87.1679 70.3956C87.1435 70.4159 87.1557 70.4687 87.0948 70.4565C86.4449 70.3306 86.5546 70.7164 86.4327 70.9398C86.3109 71.1673 86.0265 71.285 86.189 71.6993C86.2784 71.9308 86.0184 71.9754 85.8519 72.0607C85.661 72.1542 85.6001 72.3247 85.5351 72.5034C85.3198 73.0964 84.9867 73.6122 84.6983 74.1604C83.9063 74.4407 83.7397 75.1352 83.3335 75.6753C83.1995 75.8581 83.1751 76.1139 83.0492 76.3008C82.9233 76.4916 82.7243 76.6338 82.5821 76.8165C82.5049 76.914 82.4521 77.0237 82.444 77.1658C82.4359 77.3201 82.4156 77.4542 82.2206 77.4988C82.0053 77.5476 82.0338 77.775 81.9769 77.9375C81.9322 78.0674 82.0581 78.3233 81.855 78.3314C81.3554 78.3476 81.5463 78.8147 81.262 78.969C81.5423 79.3549 80.9696 79.1965 81.0955 79.5011C81.2092 79.7732 80.9736 79.8544 80.8761 80.0128C80.7908 80.159 80.6852 80.289 80.5918 80.4311C80.4902 80.5854 80.409 80.7519 80.2912 80.8941C80.0922 81.1418 79.8729 81.3774 79.6454 81.6414C79.8282 81.8038 80.0922 82.0231 80.3196 82.2384C80.6893 82.5795 80.7583 82.8151 80.474 82.7785C80.1491 82.7379 79.7226 82.5836 79.093 82.1693C78.829 81.9947 78.5446 81.8079 78.2928 81.6739C78.1344 81.5886 78.0206 81.5967 77.7241 81.5236C77.7444 81.1824 77.8947 81.0281 78.0125 80.8494C78.6787 79.8057 79.4179 78.8066 79.9866 77.6978C80.2344 77.2105 80.3197 76.6135 80.5837 76.1342C80.3887 75.6266 80.8883 75.5575 80.9046 75.1798C80.9249 74.7981 81.2133 74.5788 81.3676 74.2823C81.461 74.1076 81.526 73.9208 81.4895 73.6609C81.4529 73.3807 81.721 73.2791 81.9281 73.1451C82.0134 73.0923 82.1353 73.0679 82.0703 72.9177C82.0378 72.8486 81.9688 72.7349 82.0338 72.739C82.6065 72.7633 82.18 72.1582 82.3506 71.9308C82.4765 71.7643 82.444 71.4881 82.3506 71.1835C82.184 70.6677 82.5009 70.4565 82.6755 70.156C82.6999 70.1154 82.6999 70.0666 82.7121 70.0138C82.1434 69.7864 82.1231 69.7783 82.0216 69.8798C81.916 69.9895 81.8875 70.156 81.6113 70.1804C81.0955 69.5508 81.3432 69.3843 81.3107 69.0594C81.6316 69.0797 81.3026 68.6817 81.6479 68.702C81.9119 68.7183 81.8388 68.4665 81.9566 68.3609C82.1434 68.1944 82.643 68.2431 82.7405 68.0116C82.7689 67.9466 82.9883 67.9994 83.167 68.04C83.6991 68.1619 84.0241 68.1335 84.0931 67.9141C84.1581 67.7111 84.5521 67.7436 84.9664 67.8045C85.6691 67.9101 86.1443 67.8695 86.0956 67.443C86.0753 67.2643 86.0793 67.0938 86.3434 67.0856C86.5586 67.0775 86.5749 66.911 86.6399 66.7892C86.6967 66.6836 86.6724 66.5252 86.7333 66.4236C86.7861 66.3302 86.9201 66.2937 86.9892 66.2125C87.0907 66.0987 87.2776 66.0256 87.2289 65.8266C87.1842 65.6357 87.3141 65.5667 87.3954 65.4652C87.5985 65.2012 87.8219 64.9494 88.0534 64.7016C88.1062 64.6448 88.1753 64.596 88.3296 64.6164C88.5774 64.6529 88.6261 64.5514 88.6058 64.4214C88.5693 64.1859 88.3743 63.861 88.878 63.9706C88.9592 63.9869 88.9348 63.8975 88.8861 63.8203C88.7683 63.6376 88.882 63.6173 89.0282 63.601C89.2557 63.5726 89.3857 63.4751 89.5563 63.4061C89.0282 62.8944 89.6375 63.0609 89.6375 62.8619C89.6375 62.6507 89.8487 62.5613 89.9259 62.3948C89.9828 62.273 89.9259 62.0821 90.0031 61.9765C90.0925 61.8547 90.2955 61.8059 90.4133 61.7003C90.5189 61.6069 90.588 61.4851 90.653 61.3632C90.7058 61.2698 90.8236 61.2089 90.7464 61.0465C90.6002 60.7419 90.5677 60.5185 91.0145 60.5916C90.9982 60.4088 91.0429 60.2748 91.2501 60.2261C91.4491 60.1814 91.5019 60.0271 91.3638 59.7631C91.3272 59.6981 91.3638 59.6534 91.4329 59.6534C92.0421 59.6697 91.7903 59.1376 91.9609 58.8777C92.0015 58.8168 91.8512 58.6259 91.9446 58.6056C92.3183 58.5406 92.3305 58.2442 92.3265 57.9477C92.3265 57.7365 92.8383 57.8868 92.8464 57.6959C92.8545 57.5253 92.757 57.2897 92.8098 57.1435C92.8504 57.0298 93.0942 57.042 93.1632 56.9445C93.2363 56.8471 93.1673 56.6643 93.2323 56.5628C93.2891 56.4734 93.4516 56.4531 93.5531 56.3922C93.6994 56.3069 93.8375 56.2135 93.9674 56.116C94.1218 56.0023 93.87 55.649 94.1462 55.5962C94.4143 55.5434 94.4021 55.2916 94.5199 55.1291C94.6295 54.9789 94.7717 54.853 94.8489 54.6864C94.9342 54.5078 94.9585 54.2884 95.0113 54.0894C95.0235 54.0448 95.0154 53.992 95.056 53.9676C95.5028 53.7158 95.9415 53.4599 96.7661 53.4721C96.5386 53.0579 96.5183 52.7695 97.091 52.8548C97.3753 52.8954 97.2535 52.6802 97.2738 52.5624C97.3591 52.1156 97.3835 51.6364 98.0455 51.5552C98.0537 51.3277 98.273 51.2384 98.407 51.0922C98.5005 50.9907 98.5736 50.8729 98.6792 50.7754C98.8417 50.6251 98.8213 50.3612 99.2072 50.3571C99.5769 50.353 99.0366 49.8129 99.3088 49.7357C99.5322 49.6707 99.4184 49.3743 99.8206 49.4189C99.9627 49.4352 99.9384 49.3133 99.9993 49.2646C100.32 49.0006 100.401 48.5823 100.804 48.3671C100.998 48.2615 100.934 47.9893 100.998 47.7985C101.072 47.5913 101.141 47.3842 101.506 47.368C101.555 47.368 101.62 47.3598 101.587 47.3152C101.226 46.7994 101.726 46.7994 101.795 46.5395C101.864 46.2795 102.051 46.0846 102.221 45.8856C102.302 45.7922 102.53 45.7962 102.591 45.6906C102.656 45.5769 102.574 45.3739 102.599 45.2358C102.623 45.1058 102.721 45.0246 102.753 44.8987C102.774 44.8215 102.725 44.7078 102.717 44.6144C102.704 44.5007 102.66 44.3707 102.696 44.2895C102.851 43.9199 103.192 43.6641 103.111 43.1523C103.509 43.2214 103.314 42.9371 103.241 42.7259C103.192 42.5797 103.31 42.5188 103.371 42.4335C103.562 42.1573 103.813 41.9136 103.744 41.4831C103.732 41.3978 103.821 41.3938 103.891 41.3694C104.293 41.2273 104.191 40.7683 104.67 40.6709C104.804 40.6465 104.605 40.3906 104.654 40.2972C104.869 39.8911 105.117 39.5053 105.373 39.1235C105.414 39.0626 105.605 39.0951 105.682 39.0585C105.743 39.0301 105.714 38.9407 105.775 38.9123C105.893 38.8555 105.54 38.5671 105.576 38.4818C105.613 38.4006 105.731 38.36 105.869 38.3437C106.161 38.3072 105.787 37.8848 106.051 37.8239C106.275 37.7711 106.368 37.6168 106.324 37.4015C106.246 37.0401 106.384 36.8045 106.364 36.4796C106.364 36.4268 106.295 36.3374 106.32 36.3009C106.368 36.2278 106.437 36.1709 106.539 36.1303C106.835 36.0085 106.892 35.7486 106.921 35.4602C106.945 35.184 106.872 34.851 106.965 34.6114C107.014 34.4855 106.908 34.2702 107.181 34.2743C107.282 34.2743 107.274 34.1931 107.286 34.1322C107.408 33.5514 107.546 32.9828 108.131 32.6823C108.281 32.6051 108.147 32.3452 108.22 32.2112C108.468 31.736 108.753 31.2852 109.004 30.81C109.069 30.6882 109.13 30.5623 109.065 30.3714C109.004 30.1886 109.037 30.0749 109.26 30.0749C109.402 30.0749 109.48 30.0262 109.337 29.8637C109.057 29.5429 109.727 29.8069 109.536 29.5266C109.386 29.3033 109.524 29.2058 109.593 29.088C109.638 29.0108 109.784 28.9946 109.894 28.954C109.967 28.9296 110.089 28.9337 110.13 28.889C110.182 28.8281 110.146 28.7062 110.142 28.621C110.138 28.5357 110.166 28.4788 110.377 28.5113C110.174 28.2676 110.195 28.1539 110.259 28.0524C110.324 27.9549 110.438 27.8655 110.394 27.7315C110.341 27.5975 110.848 27.6137 110.723 27.4594C110.601 27.3173 110.763 27.2482 110.824 27.1508C110.893 27.0411 110.946 26.9314 110.966 26.8177C110.999 26.6593 111.421 26.5091 111.336 26.3385C111.247 26.1842 111.478 26.0177 111.576 25.8511C111.669 25.6887 111.799 25.5181 111.86 25.3638C111.892 25.2826 111.896 25.2054 111.9 25.1323V25.0754C111.9 25.0754 111.921 25.0348 111.88 25.0267C111.823 25.0064 111.771 24.982 111.726 24.9577C111.551 24.8602 111.502 24.7262 111.36 24.6124C111.218 24.4987 111.043 24.3931 110.869 24.2916C110.69 24.1901 110.446 24.1291 110.337 23.9911C110.243 23.8733 109.857 23.9789 109.898 23.7677C109.914 23.654 109.597 23.7758 109.386 23.853C109.151 23.9383 109.077 23.8976 109.041 23.8042C108.996 23.6986 108.895 23.6499 108.846 23.5403C108.801 23.4428 108.464 23.8002 108.237 23.9951L108.261 23.9829Z" fill="#CBFB0E"/>
<path d="M70.3153 82.0394C69.8563 81.617 70.1204 81.3043 70.1732 80.9753C70.7256 77.6451 71.9319 74.6072 72.7971 71.4394C73.0327 70.5702 73.2967 69.7133 73.581 68.8685C73.8572 68.0197 74.1375 67.1709 74.4381 66.3343C75.0433 64.661 75.6445 62.9878 76.2253 61.3145C77.6144 57.2045 79.158 53.1635 80.8274 49.1712C82.509 45.187 84.3652 41.2476 85.8356 37.1538C86.6033 35.1069 87.5863 33.125 88.1468 30.9968C88.3702 30.079 88.5002 29.1408 88.6383 28.2067C88.7845 27.2726 88.9307 26.3426 89.1826 25.4369C89.605 23.9423 90.0153 22.4396 90.3971 20.9288C90.7951 19.4221 91.2257 17.9275 91.7009 16.437C91.9162 15.7831 92.3386 15.1943 92.7773 14.6176C93.0088 14.313 93.3582 14.0896 93.9146 14.2195C94.4345 14.3414 94.4914 14.7069 94.5767 15.0156C94.8245 15.9131 94.4914 16.7497 94.4386 17.6148C94.3533 19.219 94.0933 20.7948 93.8699 22.3828C93.7928 22.8945 93.5937 23.3859 93.4231 23.8773C92.9317 25.3029 92.822 26.8096 92.6351 28.296C92.4077 29.9612 92.0421 31.5938 91.5709 33.1981C90.6814 36.2765 89.804 39.3672 88.6261 42.3522C88.0534 43.794 87.4929 45.2398 86.9039 46.6694C86.323 48.1031 85.7706 49.5489 85.2101 50.9866C83.6179 55.251 81.9362 59.491 79.9703 63.5929C77.127 69.5143 74.3365 75.4519 71.2171 81.2231C71.0302 81.5723 70.9571 82.0434 70.3113 82.0394H70.3153Z" fill="#CBFB0E"/>
<path d="M69.7548 40.8414C69.5639 41.0242 69.4461 41.1745 69.2714 41.3044C68.9587 41.5319 68.8734 41.7958 69.0927 42.0476C69.4298 42.4375 69.3486 42.8274 69.3486 43.2173C69.3527 43.6437 69.2552 44.0702 69.3324 44.4926C69.4055 44.9068 69.2471 45.317 69.5111 45.7394C69.6208 45.914 69.5964 46.1577 69.4299 46.308C69.0968 46.6085 69.7507 46.9293 69.2958 47.2421C68.979 47.4614 69.4989 47.8147 69.2105 48.0909C69.6736 48.7691 69.4217 49.4595 69.4745 50.1418C69.5273 50.8648 69.4502 51.5836 69.442 52.3065C69.442 52.5664 69.4542 52.8182 69.5883 53.0822C69.7629 53.4234 69.7182 53.793 69.7304 54.1544C69.7467 54.6702 69.5883 55.186 69.966 55.7058C70.1001 55.8886 69.8401 56.1363 69.7832 56.3597C69.7223 56.5953 69.7629 56.6237 70.36 56.9242C70.2707 57.176 70.226 57.436 70.0798 57.6756C69.9132 57.9436 70.295 58.1629 70.2788 58.431C70.2625 58.7031 70.5875 58.9874 70.23 59.2595C70.5266 59.5113 70.3478 59.7428 70.2463 60.0068C70.0879 60.4129 70.2463 60.8312 70.6565 61.1886C70.4656 61.3267 70.2219 61.4404 70.1325 61.5826C70.0148 61.7694 70.3559 61.8628 70.6403 61.9603C70.5022 62.3623 70.3235 62.7482 70.7012 63.1746C71.0262 63.5401 71.0465 63.9828 71.0871 64.397C71.1033 64.5433 71.1074 64.6123 71.3592 64.6895C71.4851 64.7301 71.6192 64.8966 71.5664 64.9291C70.9652 65.3108 71.3267 65.7535 71.2455 66.1597C71.1683 66.5414 71.1074 66.9394 71.5055 67.3049C71.7898 67.5649 71.2861 67.8532 71.5583 68.1538C71.7654 68.3853 71.5298 68.6574 71.3552 68.9132C71.2292 69.1 71.2821 69.3194 71.7817 69.364C71.7248 69.7742 71.6761 70.1519 71.6151 70.5337C71.5339 71.017 71.3592 71.5043 71.3674 71.9836C71.3795 72.4344 71.6151 72.8771 71.7045 73.3279C71.7695 73.6487 71.737 73.9777 71.7776 74.3026C71.8182 74.6234 71.6436 74.9646 72.0051 75.257C72.3666 75.5494 71.6761 75.9027 72.1553 76.187C72.1797 76.7069 72.2082 77.2267 72.2406 77.7425C72.2488 77.905 72.3138 78.0715 72.2691 78.2299C72.1838 78.5426 72.8134 78.8391 72.2772 79.1599C71.8751 79.3955 72.2975 79.7366 71.7735 79.9641C71.6476 80.0169 71.6314 80.1428 71.5786 80.2362C71.4811 80.4027 72.0254 80.5895 71.4648 80.7479C71.1155 80.8494 71.2536 81.0525 71.0911 81.1865C70.8881 81.353 70.6322 81.5155 70.3397 81.6454C69.901 81.8404 69.3852 81.8851 68.9018 81.7226C68.2844 81.5155 67.6833 81.2962 67.0821 81.0728C66.9968 81.0403 66.9074 80.9672 66.9278 80.9185C67.1552 80.3214 66.5784 79.8666 66.0423 79.3345C66.2982 79.034 66.5744 78.6563 66.29 78.3314C66.0423 78.0431 66.4525 77.7466 66.1073 77.4826C65.7661 77.2227 66.6353 76.914 66.0951 76.65C66.3713 76.3211 66.3266 76.0043 66.0423 75.6916C65.9935 75.6388 65.9732 75.5575 66.0138 75.5007C66.4444 74.9321 66.0667 74.4041 65.9164 73.8518C65.8189 73.5066 65.6727 73.1492 66.0179 72.7796C66.2007 72.5846 66.0829 72.3247 66.1763 72.1014C66.3063 71.7805 65.8595 71.6343 65.4939 71.4231C65.827 70.9967 65.9407 70.5459 65.6645 70.0869C65.6117 70.0017 65.5995 69.8961 65.632 69.8067C65.9082 69.0838 65.7295 68.3609 65.7417 67.638C65.7417 67.443 65.7173 67.2318 65.5711 67.0572C65.3274 66.7607 65.368 66.4967 65.5792 66.2003C65.7986 65.8876 65.8514 65.5545 65.4899 65.2459C65.2055 64.9981 65.1568 64.6895 65.4208 64.4823C66.0017 64.0356 65.2502 63.5848 65.5833 63.1543C65.1649 62.8537 65.3558 62.5207 65.3883 62.1918C65.4127 61.9603 65.5021 61.7044 65.3396 61.5054C65.1081 61.2211 65.2462 61.0059 65.4655 60.7622C65.5386 60.6809 65.5914 60.5754 65.5549 60.4901C65.1934 59.5722 65.4777 58.6503 65.3802 57.7324C65.3396 57.3385 65.3193 56.9445 65.2868 56.5465C65.2786 56.4572 65.2624 56.3638 65.2786 56.2744C65.3111 56.047 65.3883 55.8155 65.3964 55.5881C65.4086 55.2916 65.5102 54.9707 65.3233 54.7027C65.1121 54.4022 65.5711 54.1179 65.1893 53.8458C65.5142 53.5899 64.7669 53.265 65.3436 53.0254C64.71 51.9085 65.2908 50.7957 65.1365 49.6789C65.0959 49.3824 65.0512 49.0859 65.0634 48.7894C65.0756 48.5011 65.1649 48.2127 65.2055 47.9284C65.2218 47.831 65.2299 47.7254 65.1852 47.632C64.8278 46.9131 64.6531 46.1983 65.1527 45.4998C64.576 45.0124 65.5345 44.5494 65.0756 44.0621C65.0106 43.993 65.1446 43.8793 65.1812 43.7859C65.5427 42.8477 65.5792 41.9014 65.234 40.9389C65.1202 40.6181 65.6889 40.3216 65.1812 40.0007C65.2015 39.7043 65.1812 39.4078 65.4533 39.1397C65.6645 38.9286 65.6117 38.6971 65.4411 38.4656C65.3518 38.3397 65.2462 38.1853 65.3152 38.0797C65.5873 37.6452 65.4939 37.1944 65.4492 36.7395C65.8107 36.5243 65.173 36.2846 65.3843 36.0775C65.8676 35.6023 65.9651 35.1028 65.6239 34.5586C65.5995 34.522 65.892 34.4449 66.0951 34.3636C65.6483 34.0591 65.3477 33.726 65.7742 33.3768C65.3843 32.2071 65.7173 31.0659 65.7458 29.9125C65.7539 29.6485 65.7498 29.3764 65.6402 29.1164C65.5386 28.8728 65.5386 28.6697 65.6848 28.4423C65.7986 28.2757 65.693 28.0564 65.6848 27.8615C65.6686 27.4472 65.3315 27.0289 65.5711 26.6106C65.7986 26.2167 65.4736 25.7659 65.5955 25.3475C65.7173 24.9292 65.7823 24.5028 65.8229 24.0763C65.892 23.3534 65.8189 22.6062 66.0423 21.9035C66.1763 21.4852 66.1966 21.0832 66.1276 20.6608C66.087 20.4293 66.1073 20.1937 66.1601 19.9663C66.286 19.4627 66.7653 19.0038 66.355 18.4311C66.2576 18.2971 66.4688 18.1225 66.5419 17.9641C66.5866 17.8707 66.7206 17.7732 66.6759 17.6879C66.1804 16.7944 66.7125 15.974 66.6962 15.113C66.6759 14.248 66.814 13.3951 66.8709 12.5341C66.9115 11.8802 66.9603 11.2264 67.0577 10.5765C67.1471 9.99172 67.3136 9.40689 67.0374 8.78551C66.9562 8.59869 67.1105 8.40375 67.1593 8.2088C67.1918 8.0829 67.2893 7.96106 67.2446 7.83516C67.1715 7.63616 66.9196 7.43309 66.9074 7.24221C66.8953 7.05133 67.143 6.88482 67.1715 6.68987C67.2161 6.3934 67.2608 6.10098 67.2933 5.80451C67.3096 5.65424 67.3218 5.50803 67.3339 5.35776L67.3461 5.13439C67.3461 5.1019 67.338 5.08565 67.3339 5.06129C67.3055 4.94757 67.1227 4.83385 67.0415 4.76075C66.9521 4.66328 66.7125 4.66328 66.8709 4.52519C67.0415 4.36274 66.9481 4.28558 66.9237 4.19623C66.8953 4.09876 66.8668 3.98504 66.7693 3.94036C66.6759 3.89569 66.5135 3.92412 66.3144 4.10688C66.2372 4.18404 66.3022 4.00128 66.2494 4.01753C66.1926 4.03784 66.1073 4.13125 66.0423 4.21653C65.9854 4.28964 65.9285 4.40742 65.9001 4.46427C65.8798 4.50083 65.8595 4.54144 65.8636 4.45209C65.8636 4.39117 65.8636 4.34243 65.8554 4.30182C65.8595 4.26121 65.7498 4.22466 65.6889 4.19623C65.5467 4.13937 65.3964 4.11906 65.2502 4.11094C64.9537 4.09876 64.6491 4.15155 64.3485 4.15155C63.9139 4.15155 63.4752 4.11906 63.0528 4.56581C62.8984 4.72826 62.7278 4.7445 62.606 4.53738C62.4272 4.23684 62.2079 4.24496 61.9886 4.23278C60.6278 4.15968 59.2671 4.10282 57.9064 4.07439C57.683 4.07439 57.4596 4.0622 57.2403 4.11094C56.9316 4.17998 56.631 4.1678 56.3182 4.11094C55.8227 4.02971 55.3109 4.0622 54.8194 4.21653C54.7057 4.25715 54.5473 4.29776 54.4701 4.33837C54.466 4.37899 54.466 4.40335 54.466 4.41554C54.466 4.43991 54.466 4.39523 54.4092 4.20435C54.397 4.15968 54.3848 4.13531 54.3929 4.17592C54.4498 4.43991 54.4823 4.47646 54.4701 4.46021C54.466 4.44397 54.4132 4.37086 54.4376 4.41148C54.4985 4.51301 54.4295 4.35462 54.4173 4.52519C54.4173 4.61048 54.4173 4.69983 54.4173 4.78918C54.4173 4.83791 54.3685 4.85416 54.2386 4.85416C54.1208 4.86228 54.401 5.03286 54.4213 5.07753C54.4457 5.13439 54.466 5.17906 54.3036 5.20343C54.1167 5.24811 54.5716 5.32933 54.401 5.36182C54.3848 5.3537 54.4295 5.39838 54.401 5.4268C53.9502 5.91822 54.267 6.44213 54.1248 6.9498C53.9786 7.46558 54.0761 7.99761 54.0436 8.52559C54.0233 8.88704 54.0436 9.25256 53.9014 9.60183C53.7715 9.91455 54.068 10.2395 53.6862 10.5481C53.5399 10.6659 53.6577 10.869 53.6699 11.0314C53.7308 11.8518 53.7999 12.6722 53.3896 13.4804C53.3409 13.5738 53.3003 13.6835 53.345 13.7728C53.5684 14.2236 53.4831 14.6622 53.3287 15.1171C53.15 15.6288 53.5521 16.1365 53.3815 16.6685C53.215 17.1802 53.349 17.7163 53.3247 18.2443C53.3125 18.4717 53.3409 18.7195 53.1703 18.9185C52.9428 19.1784 53.0566 19.4383 52.9388 19.6861C52.8169 19.946 52.8494 20.1694 52.9388 20.4293C53.0606 20.7745 53.0606 21.1684 52.8535 21.5055C52.5326 22.0294 52.6179 22.5493 52.6382 23.0651C52.6707 23.7839 52.3417 24.515 52.8291 25.2176C52.3133 25.6643 52.8982 26.2004 52.3336 26.6553C52.1833 26.7771 52.2645 26.9761 52.2523 27.1386C52.2198 27.5934 52.492 28.028 52.3295 28.4991C52.1873 28.9134 52.2889 29.352 52.2848 29.7784C52.2767 30.5663 52.2442 31.3583 52.2726 32.1462C52.2889 32.597 52.4676 33.0356 52.3539 33.4945C52.2523 33.9169 52.3011 34.3474 52.3092 34.7779C52.3092 35.2368 52.4392 35.6998 52.3295 36.1547C52.167 36.8451 52.3782 37.5152 52.3823 38.1975C52.3945 39.8748 52.4635 41.5522 52.4717 43.2295C52.4717 43.7818 52.5326 44.3382 52.228 44.8946C52.098 45.1342 52.297 45.4104 52.3051 45.6703C52.3173 46.0115 52.496 46.3486 52.297 46.6938C52.2239 46.8197 52.1589 46.9537 52.1792 47.0796C52.2523 47.5629 52.4879 48.0421 52.427 48.5214C52.362 49.0047 52.1427 49.4839 52.2036 49.9753C52.2523 50.3612 52.1427 50.7592 52.0939 51.1491C52.0858 51.214 51.968 51.2912 52.0086 51.3359C52.561 51.9776 51.9761 52.6274 51.9761 53.2691C51.9761 54.6418 51.6918 56.0307 52.2483 57.3872C52.2726 57.4441 52.2158 57.5131 52.2036 57.574C51.9599 58.8168 52.1955 60.0555 52.0939 61.2983C52.0899 61.3632 52.1264 61.4404 52.0695 61.4932C51.4684 62.0334 51.7852 62.5938 51.8177 63.1421C51.8502 63.6944 51.6959 64.2468 52.0695 64.7991C52.2808 65.1037 52.098 65.4977 52.0086 65.8469C51.9111 66.2409 51.9639 66.6226 52.0167 67.0166C52.1955 68.3325 52.2361 69.6564 52.3336 70.9804C51.8665 72.4303 52.1467 73.8721 52.1508 75.3179C52.1508 75.8053 52.2889 76.2886 52.3051 76.7759C52.3214 77.2673 52.2483 77.7588 52.2442 78.2542C52.2442 78.5182 52.2686 78.7822 52.3457 79.0381C52.4351 79.3264 52.496 79.5904 52.3701 79.8991C52.228 80.2443 52.3904 80.6139 52.4432 80.9753C52.4839 81.2596 52.7438 81.5683 52.5854 81.8201C52.1955 82.4536 52.6341 83.0507 52.5042 83.6639C52.9672 84.0091 52.4148 84.4193 52.6991 84.8092C52.955 85.1544 52.8169 85.5849 52.8413 85.9789C52.8616 86.3403 52.8575 86.7018 52.8738 87.0632C52.89 87.4572 52.9266 87.8511 52.9225 88.2451C52.9225 88.9274 52.8941 89.6097 52.8738 90.3529C53.1175 90.4138 53.4628 90.491 53.7755 90.5884C54.2751 90.7468 54.4782 91.0758 54.2345 91.356C53.9542 91.6809 53.5196 91.9206 52.7682 91.9571C52.4514 91.9734 52.1102 91.9815 51.8299 92.0505C51.6512 92.0952 51.5699 92.2455 51.2856 92.477C51.0906 91.8475 51.115 91.3845 51.0947 90.9296C50.9728 88.2613 50.9403 85.593 50.7129 82.9288C50.6113 81.7592 50.3148 80.5976 50.2336 79.4239C49.7705 78.7497 50.1239 78.0268 49.9086 77.3283C49.6893 76.6216 49.7868 75.8824 49.734 75.1595C49.7015 74.7371 49.6406 74.3229 49.4578 73.9005C49.2628 73.4456 49.4131 72.938 49.4984 72.4547C49.535 72.2557 49.6162 72.0689 49.474 71.878C49.405 71.7886 49.2831 71.6749 49.34 71.6018C49.8152 70.9601 49.1085 70.3875 49.1085 69.7742C49.1085 69.3234 48.9175 68.8645 48.6617 68.434C48.2189 67.703 48.3489 66.9476 48.3123 66.1962C48.3083 66.0987 48.2758 66.0053 48.2555 65.8997C47.6624 66.1718 47.6381 66.18 47.6218 66.4805C47.6015 66.8054 47.6787 67.1344 47.4715 67.508C46.6795 66.9963 46.7851 66.3952 46.5617 65.8469C46.8298 65.5017 46.3302 65.1728 46.6185 64.7951C46.8379 64.5067 46.6307 64.1452 46.6673 63.8122C46.7201 63.2883 47.1547 62.7847 47.0938 62.2486C47.0775 62.1024 47.2847 61.9278 47.4553 61.7897C47.959 61.3754 48.2027 60.9368 48.1296 60.4616C48.0605 60.019 48.3976 59.6088 48.7754 59.227C49.409 58.5853 49.7665 57.9477 49.4821 57.237C49.3603 56.9364 49.2669 56.6318 49.474 56.2947C49.6446 56.0226 49.5593 55.7058 49.5431 55.4094C49.5268 55.1535 49.4172 54.8976 49.405 54.6418C49.3928 54.4143 49.4821 54.1869 49.4943 53.9554C49.5106 53.6264 49.6202 53.2812 49.4659 52.9726C49.3197 52.6802 49.3847 52.404 49.3887 52.1197C49.4009 51.4009 49.4415 50.6861 49.4862 49.9672C49.4984 49.8048 49.5268 49.6301 49.6649 49.488C49.8883 49.2565 49.8721 49.025 49.7787 48.8097C49.6121 48.432 49.2669 48.0706 49.7421 47.6766C49.8193 47.6116 49.7462 47.4776 49.6649 47.3964C49.4618 47.2055 49.5431 47.0349 49.6527 46.8319C49.8233 46.5151 49.8721 46.1861 49.9736 45.8612C49.2466 45.5526 49.8436 45.1424 49.7299 44.785C49.6081 44.4032 49.7299 43.9971 49.6974 43.6031C49.673 43.3188 49.5187 43.0386 49.5228 42.7543C49.5268 42.4294 49.6649 42.1004 49.7055 41.7755C49.738 41.4791 49.7259 41.1826 49.7096 40.8861C49.6974 40.6546 49.7624 40.4069 49.604 40.2038C49.3115 39.8221 49.1572 39.4565 49.5715 39.0707C49.4537 38.762 49.4131 38.4615 49.5593 38.1325C49.6974 37.8198 49.6568 37.4787 49.3928 37.1619C49.3278 37.0807 49.3278 36.9629 49.3928 36.8817C49.9086 36.2034 49.3968 35.5333 49.3928 34.8632C49.3928 34.7048 49.1572 34.5342 49.2262 34.388C49.4984 33.8316 49.344 33.2874 49.1734 32.7513C49.0516 32.3695 49.5634 32.0487 49.4618 31.6872C49.3725 31.3664 49.1613 31.0537 49.1206 30.7328C49.0922 30.481 49.2994 30.217 49.3034 29.9612C49.3075 29.7013 49.1491 29.4454 49.1491 29.1855C49.1491 28.958 49.2709 28.7306 49.3197 28.5032C49.3928 28.1783 49.4618 27.8493 49.5146 27.5244C49.5796 27.1386 49.1775 26.7893 49.3765 26.371C49.5715 25.9649 49.4212 25.5222 49.4293 25.0917C49.4375 24.6977 49.4862 24.2997 49.4618 23.9058C49.4334 23.4793 49.3359 23.057 49.2709 22.6305C49.2587 22.5371 49.2222 22.4437 49.2425 22.3543C49.4781 21.3837 49.7055 20.409 50.4042 19.483C49.9858 18.9875 49.8152 18.488 50.3392 17.9803C50.5992 17.7285 50.3798 17.4767 50.3351 17.2371C50.1645 16.3274 49.9289 15.4217 50.4407 14.516C50.3229 14.0977 50.4611 13.6794 50.4935 13.2611C50.5179 12.9646 50.5179 12.6681 50.5504 12.3716C50.6032 11.9168 50.4448 11.4538 50.7698 11.003C51.0784 10.5765 50.3351 10.2029 50.522 9.7521C50.6763 9.37846 50.4204 8.97233 50.786 8.59057C50.916 8.45248 50.8307 8.26566 50.855 8.10321C50.985 7.2544 50.8307 6.40152 51.0581 5.54864C51.1109 5.31715 51.0906 5.21156 51.046 5.04098C51.0053 4.88259 50.9444 4.72014 50.92 4.55768C50.8713 4.21247 50.8226 3.81853 51.1231 3.61952C51.1637 3.59515 51.2125 3.55454 51.1637 3.50174C50.8754 3.18496 50.8347 2.94128 50.8591 2.74634C50.8835 2.54733 50.9688 2.39707 50.9322 2.16557C50.8916 1.93002 50.8875 1.7107 50.8957 1.50764C50.8997 1.40611 50.9079 1.30863 50.92 1.21116L50.9363 1.06902V1.03247C50.9363 1.03247 50.9647 1.03247 50.9769 1.03247H51.0581C51.2612 1.04871 51.6065 1.23553 51.7649 1.22335C51.9396 1.2071 51.9964 1.03247 52.167 0.975607C52.3214 0.92281 52.5326 0.955301 52.6951 0.914687C52.7966 0.89032 52.8657 0.784725 52.9632 0.727867C53.0769 0.654763 53.1906 0.549169 53.3368 0.532924C53.6618 0.496372 54.003 0.516679 54.336 0.504495C54.7179 0.492311 55.1687 0.443575 55.579 0.277062C55.8999 0.654764 56.1923 0.337981 56.5091 0.171467C56.7244 0.0577507 56.9641 0.130854 57.1915 0.138977C57.9105 0.171467 58.6294 0.277061 59.3524 0.0171375C59.4946 -0.0356595 59.6002 0.0455667 59.722 0.0983638C60.4166 0.390778 61.1599 0.0983638 61.8505 0.500434C62.0414 0.61415 62.2973 0.321736 62.5207 0.329859C63.5036 0.362349 64.4825 0.439514 65.4614 0.545108C65.6158 0.561353 65.7498 0.752235 65.9042 0.817216C66.022 0.865952 66.1601 0.809093 66.2494 0.853768C66.4241 0.943116 66.6191 0.508556 66.8059 0.512618C66.9806 0.516679 67.139 0.61415 67.2608 0.73599C67.3867 0.865952 67.5695 0.809093 67.7686 0.756296C67.9676 0.703499 68.1869 0.650702 68.3088 0.784726C68.5119 1.00404 68.8084 1.10557 69.1943 1.11775C69.8523 1.13806 70.2666 1.56044 70.6281 1.97469C70.689 2.03967 70.819 2.0681 70.8393 2.15745C70.8799 2.34021 70.884 2.54327 70.8312 2.7504C70.6809 3.37178 70.7256 3.82665 70.7906 4.36274C70.819 4.6186 70.8799 4.87853 70.9246 5.15876C70.9693 5.43899 71.0058 5.72734 70.9977 5.99539C70.9855 6.2878 71.1521 6.58428 70.884 6.84826C70.7824 6.94574 70.8149 7.09194 70.8231 7.2219C70.8718 8.4403 70.9043 9.65057 70.4331 10.8121C70.3113 11.1126 70.5225 11.47 70.494 11.7909C70.4047 12.9402 70.2585 14.0815 70.1813 15.2267C70.161 15.5192 70.1407 15.8238 70.2666 16.1162C70.3884 16.3964 70.3884 16.6441 70.1772 16.8797C70.0391 17.03 69.9823 17.1924 70.1772 17.3508C70.5509 17.6676 69.8198 17.8504 70.096 18.1915C70.3113 18.4596 70.2138 18.7804 70.1854 19.0728C70.1691 19.2637 70.0351 19.4465 69.9457 19.6333C69.8848 19.7551 69.767 19.8688 69.7426 19.9947C69.6817 20.3359 70.0513 20.7176 69.6329 21.0263C70.1732 21.6639 69.6939 22.265 69.8563 22.8904C69.9416 23.2235 69.4705 23.4956 69.6289 23.8245C69.7832 24.1373 69.6533 24.4134 69.6289 24.7058C69.6004 25.0348 69.5883 25.3638 69.5964 25.6927C69.6126 26.1801 69.2877 26.6269 69.4095 27.1345C69.5273 27.6259 69.373 28.1173 69.3364 28.6088C69.3039 29.1002 69.2471 29.5916 69.243 30.0871C69.2349 30.611 69.3161 31.139 69.2877 31.6588C69.2593 32.1746 69.1374 32.6823 69.0805 33.1981C69.0196 33.722 68.9952 34.2459 68.9668 34.7698C68.9384 35.2937 68.9871 35.8257 68.8896 36.3456C68.8125 36.7598 69.0805 37.1822 68.8531 37.6005C68.7353 37.8198 68.9831 38.1163 69.1415 38.3681C69.3242 38.6524 69.308 38.9245 69.2349 39.2047C69.1536 39.5256 69.1455 39.8505 69.0602 40.1713C68.9871 40.4475 69.4623 40.5693 69.7345 40.8171L69.7548 40.8414Z" fill="#CBFB0E"/>
<path d="M49.3481 106.143C49.1491 106.387 48.9054 106.525 48.686 106.48C48.4829 106.44 48.2758 106.399 48.0889 106.318C46.5007 105.656 44.9085 105.01 43.3325 104.312C42.5811 103.979 41.8784 103.524 41.1351 103.162C40.3917 102.805 39.6037 102.569 39.0554 101.798C38.8036 101.444 38.3689 101.327 37.979 101.193C36.6142 100.721 35.2982 100.133 33.9984 99.5071C33.5028 99.2715 32.9586 99.1497 32.6824 98.4917C32.593 98.2765 32.3249 98.3496 32.0975 98.374C31.0332 98.4877 30.1518 98.0978 29.4694 97.318C29.1201 96.92 28.7383 96.656 28.3078 96.4408C27.6416 96.1037 26.8008 96.0915 26.4718 95.1046C26.2646 95.0965 26.0616 95.0437 25.8422 95.0884C25.6066 95.1412 25.371 95.1655 25.2532 94.9665C25.0542 94.6254 24.8471 94.3167 24.514 94.1827C23.4945 93.7684 22.4993 93.2811 21.4595 92.9156C20.4156 92.55 19.4854 91.9368 18.4984 91.4535C17.4423 90.9336 16.2603 90.759 15.1921 90.2798C12.7387 89.1873 10.2447 88.1882 7.77107 87.1323C7.0765 86.8358 6.44691 86.3687 5.71578 86.19C5.52894 86.1454 5.34615 86.0885 5.16743 86.0276L5.03339 85.9789L4.85061 85.9057L4.47286 85.7474C3.97325 85.528 3.47364 85.3047 3.0309 85.0407C2.58816 84.7767 2.20635 84.5005 1.86109 84.1716C1.51177 83.8467 1.22338 83.4243 1.03654 82.9491C1.01217 82.3277 1.10965 81.7551 1.264 81.2028C1.41429 80.6504 1.64175 80.1062 1.93827 79.5579L3.9042 76.0896L5.6711 72.9339C5.90669 72.5075 6.2032 72.1379 6.71093 71.9023C6.9059 71.813 7.06431 71.6099 7.044 71.4069C6.99932 70.9073 7.18617 70.5784 7.68578 70.42L8.33567 69.3478C8.56313 68.9904 8.7906 68.6492 9.05868 68.3528C9.31457 68.0603 9.63546 67.6745 10.0173 67.7517C10.1879 67.7842 10.3503 67.8126 10.5047 67.8329C10.9799 67.9101 11.3983 68.0075 11.8004 68.1659C12.7265 68.5721 13.6607 69.096 14.5056 69.494C15.1839 69.823 15.7851 70.3306 16.7112 70.0666C16.8574 70.026 16.9955 70.0991 17.1174 70.16C17.9785 70.5946 18.8396 71.0332 19.6845 71.5043C19.8551 71.6018 19.985 71.8049 20.0825 72.012C20.3668 72.6131 20.8299 72.8689 21.4676 72.8161C21.6098 72.804 21.8088 72.7674 21.8575 72.873C22.2719 73.7868 23.1736 73.8761 23.8438 74.3513C24.0672 74.5097 24.3231 74.6437 24.4612 74.9077C24.6155 75.2042 24.7943 75.3382 25.1355 75.2732C25.3589 75.2326 25.5741 75.2935 25.7569 75.3788C26.3784 75.6753 26.9795 76.0124 27.4182 76.6094C27.4954 76.715 27.6213 76.8165 27.7553 76.7962C28.6693 76.6703 29.242 77.1414 29.6685 77.8928C29.7335 78.0065 29.9 78.0512 30.0381 78.0268C30.3265 77.9862 30.3102 78.3395 30.4605 78.4654C30.5621 78.5507 30.688 78.6807 30.822 78.6319C31.4272 78.4208 31.8456 78.6522 32.268 78.8878C33.1698 79.3955 34.0471 79.9478 34.9895 80.3783C35.9156 80.8047 36.5939 81.7429 37.8693 81.4749C37.9912 81.4505 38.0765 81.6454 38.1618 81.7591C38.3364 81.9866 38.4502 82.3196 38.6776 82.4415C39.3438 82.7907 39.8637 83.4446 40.7451 83.3512C41.0904 83.3146 41.1351 83.7533 41.4641 83.6842C41.7931 83.6152 42.0774 83.6558 42.2846 83.8588C42.4795 84.0497 42.5811 84.4234 42.8288 84.4843C43.17 84.5696 43.5234 84.6102 43.824 84.7889C44.1774 84.996 44.6242 85.061 44.7785 85.5687C44.8313 85.7433 44.9369 85.788 45.1157 85.7636C45.5178 85.7067 45.8468 85.8367 46.1067 86.0723C46.3098 86.2591 46.4114 86.6084 46.6429 86.7343C46.9354 86.8926 47.3578 86.8195 47.6543 86.9739C48.3895 87.3516 49.076 87.8227 49.803 88.2166C50.4692 88.5781 51.0988 89.0411 51.8664 89.1629C52.0858 89.1954 52.2726 89.2766 52.4676 89.3416L50.5423 92.5501C50.392 92.5216 50.2539 92.4485 50.1239 92.3714L43.2107 88.3019C42.7354 88.0257 42.2642 87.7739 41.6022 87.8998C41.2 87.977 41.2488 87.2663 40.7857 87.3556C40.2902 87.4531 39.9734 87.1891 39.7743 86.7343C39.4169 85.9098 38.7142 85.6336 37.9506 85.4671C37.2519 85.6986 36.8173 85.3412 36.3421 85.0732L32.2193 82.7623C31.9228 82.5958 31.5329 82.4902 31.411 82.1409C31.216 81.5886 30.7367 81.7754 30.363 81.6536C29.3151 81.3124 28.2671 80.955 27.402 80.2605C27.1217 80.0331 26.7764 80.0006 26.3865 80.0534C25.9844 80.1062 25.7 79.9275 25.5335 79.5498C25.4035 79.2533 25.2004 79.0787 24.8836 79.0868C24.7415 79.0868 24.5384 79.1112 24.4896 78.9975C24.1403 78.1324 23.3523 77.9821 22.7065 77.6125C21.8738 77.1374 21.0208 76.6988 20.1638 76.2642C19.7373 76.0449 19.3026 75.8459 19.0955 75.2895C18.4497 75.326 18.3034 74.5422 17.8038 74.3188C16.6137 73.7827 15.4845 73.1329 14.3106 72.5603C14.071 72.4425 13.7948 72.341 13.4983 72.3978C13.0149 72.4953 12.625 72.3978 12.2635 72.1948C12.0157 72.0607 12.0807 72.0892 12.0319 72.0607C12.0035 72.0445 11.9751 72.0242 11.9466 71.9998C11.9223 71.9754 11.9101 71.8455 11.8735 71.7521C11.841 71.6587 11.7882 71.6059 11.7557 71.7764C11.7232 71.9754 11.6867 71.943 11.6298 71.9389C11.6136 71.9389 11.5933 71.9389 11.5811 71.9511C11.5405 71.9998 11.4877 71.9551 11.2683 71.7358C11.0937 71.5653 11.0124 71.614 10.9718 71.6912C10.854 71.9064 10.8784 71.882 10.4681 72.5765C10.0782 73.2182 9.86699 73.9696 8.94495 74.266C8.66468 74.3554 8.61188 74.6965 8.44534 74.9158C8.18944 75.2529 8.16507 75.6875 8.17726 76.1383C7.6086 76.3251 7.40551 76.7678 7.15774 77.182C6.90996 77.6004 6.74749 78.039 6.84904 78.6157C6.9384 79.1031 6.71906 79.5132 6.28038 79.6757C6.12197 79.7366 5.98386 79.8097 5.86201 79.8909C5.80108 79.9316 5.74421 79.9762 5.69547 80.025C5.64267 80.0696 5.58986 80.1306 5.56549 80.1387C5.45176 80.2199 5.37865 80.3336 5.31366 80.4514C5.17149 80.6991 5.04152 80.9428 4.96434 81.2109C4.87904 81.4708 4.87092 81.7957 5.00902 82.0434C5.09838 82.2221 5.28116 82.3277 5.47207 82.4171C5.66704 82.5064 5.87419 82.5836 6.07729 82.6567C6.13415 82.677 6.18695 82.6973 6.23976 82.7217L6.44691 82.8151L7.05213 83.1034C7.45425 83.2984 7.86043 83.4893 8.28287 83.6314C9.45268 84.0294 10.6265 84.4152 11.7639 84.8985C12.9012 85.3859 14.0101 85.9382 15.1189 86.4946C16.2847 87.0795 17.4911 87.5871 18.7096 88.0664C19.9282 88.5456 21.1224 89.0817 22.3328 89.5772C22.7146 89.7315 23.1086 89.8615 23.5107 89.9589C24.8024 90.2635 25.9722 90.8402 27.0689 91.5916C27.5157 91.8962 27.7594 92.6313 28.4662 92.3714C29.4248 93.5573 30.8383 93.7441 32.0975 94.268C32.6702 94.5076 33.2429 94.7472 33.7669 95.0843C34.1609 95.3361 34.4533 95.7788 35.0301 95.6529C35.2251 95.6082 35.4485 95.7666 35.546 95.9656C35.8019 96.5017 36.1999 96.7576 36.6548 96.9322C37.1057 97.1028 37.5525 97.2855 37.9871 97.4927C38.4827 97.7282 38.962 98.0003 39.4453 98.2562C39.6281 99.0157 40.343 98.4755 40.7207 98.7517C40.8304 98.8329 40.9929 98.8532 41.0538 98.9832C41.3097 99.5193 41.7362 99.7223 42.1789 99.9254L47.045 102.204C47.3659 102.35 47.6096 102.61 47.8412 102.898C47.9793 103.069 48.158 103.211 48.4058 103.101C48.9663 102.854 49.1653 103.321 49.4171 103.702C49.6324 104.027 49.7908 104.401 49.7868 104.929C49.7868 105.384 49.5918 105.794 49.3156 106.131L49.3481 106.143Z" fill="#CBFB0E"/>
<path d="M57.9998 116.244C58.0404 116.556 57.9673 116.833 57.7805 116.967C57.6058 117.093 57.4271 117.214 57.2362 117.304C55.6155 118.043 53.9948 118.786 52.3498 119.477C51.5618 119.81 50.721 120.013 49.9208 120.313C49.1206 120.614 48.3814 121.036 47.4147 120.902C46.976 120.841 46.5698 121.081 46.192 121.272C44.8598 121.954 43.4706 122.49 42.0693 123.01C41.5372 123.205 41.0497 123.513 40.3674 123.258C40.144 123.172 40.0018 123.416 39.8515 123.599C39.1569 124.452 38.2227 124.813 37.1626 124.76C36.6223 124.732 36.1471 124.825 35.6759 124.98C34.9448 125.223 34.3111 125.812 33.3647 125.353C33.2023 125.495 33.0154 125.605 32.8895 125.792C32.7514 125.995 32.597 126.182 32.3655 126.125C31.9715 126.027 31.6019 125.958 31.2607 126.096C30.2087 126.527 29.1242 126.888 28.0925 127.368C27.0567 127.843 25.9275 128.062 24.8471 128.411C23.6894 128.781 22.678 129.484 21.5407 129.89C18.9249 130.816 16.3416 131.831 13.7257 132.761C12.9905 133.021 12.1904 133.118 11.5039 133.488C10.1066 134.248 8.51032 134.325 7.08462 135.064C5.78483 135.218 4.62314 135.856 3.47364 135.799C3.08776 135.779 2.68564 135.669 2.34445 135.446C2.00325 135.222 1.74736 134.918 1.53208 134.593C1.10965 133.943 0.841566 133.123 0.593793 132.302C0.476 131.892 0.362268 131.47 0.272908 131.055C0.199794 130.718 0.134805 130.377 0.0901247 130.024C-0.00329768 129.317 -0.0398543 128.574 0.05763 127.786C0.138867 127.161 0.382577 126.515 0.955297 126.117C1.16651 125.967 1.36148 125.715 1.39398 125.471C1.47115 124.862 1.89764 124.439 2.49067 124.444C3.17713 123.952 3.87982 123.639 4.52566 123.367C4.8506 123.233 5.17555 122.981 5.54112 123.067C6.22351 123.225 6.71093 122.965 7.21866 122.722C8.11633 122.291 9.01805 121.873 9.9076 121.43C10.6022 121.085 11.3942 120.914 11.772 120.009C11.8329 119.866 11.9791 119.801 12.1051 119.741C13.0027 119.31 13.9085 118.896 14.8265 118.506C15.0133 118.429 15.2611 118.453 15.4886 118.498C16.1507 118.632 16.6543 118.425 17.0199 117.885C17.1011 117.767 17.2027 117.58 17.3164 117.608C18.3116 117.84 18.9614 117.174 19.7779 116.934C20.046 116.853 20.3222 116.731 20.6187 116.788C20.9558 116.849 21.1752 116.788 21.3457 116.475C21.4554 116.272 21.6463 116.138 21.8332 116.049C22.4709 115.74 23.133 115.476 23.8925 115.496C24.0306 115.496 24.189 115.464 24.2581 115.346C24.7496 114.542 25.501 114.388 26.3743 114.518C26.5083 114.538 26.6465 114.432 26.7236 114.311C26.878 114.055 27.1461 114.29 27.3451 114.246C27.4791 114.217 27.6619 114.197 27.7147 114.063C27.9462 113.458 28.4012 113.275 28.8642 113.092C29.8512 112.694 30.8626 112.353 31.8253 111.89C32.7676 111.427 33.9537 111.492 34.5874 110.326C34.6483 110.213 34.8595 110.274 35.0017 110.278C35.2941 110.282 35.6312 110.404 35.879 110.302C36.5939 110.006 37.451 110.018 37.9668 109.27C38.1699 108.978 38.5395 109.222 38.7061 108.917C38.8685 108.617 39.0919 108.422 39.3885 108.393C39.6687 108.365 40.0262 108.519 40.2374 108.369C40.5298 108.158 40.802 107.91 41.1391 107.788C41.5372 107.646 41.8865 107.337 42.3861 107.548C42.5567 107.622 42.6664 107.569 42.7638 107.414C42.9872 107.065 43.3081 106.895 43.6656 106.846C43.9458 106.805 44.287 106.956 44.5389 106.854C44.8557 106.724 45.0872 106.363 45.4081 106.229C46.1961 105.904 47.0247 105.676 47.8208 105.368C48.5479 105.087 49.3359 104.905 49.9492 104.393C50.1239 104.247 50.3107 104.153 50.4935 104.044L51.6674 107.593C51.5456 107.687 51.3912 107.747 51.249 107.796C48.6495 108.673 46.0539 109.575 43.4665 110.497C42.9344 110.684 42.4226 110.891 42.0855 111.484C41.8824 111.845 41.3584 111.354 41.1229 111.772C40.871 112.219 40.4527 112.292 39.9652 112.158C39.0879 111.914 38.4055 112.288 37.7678 112.775C37.4875 113.462 36.9189 113.575 36.3989 113.779L31.8822 115.541C31.5572 115.667 31.2201 115.907 30.8667 115.789C30.3062 115.598 30.1396 116.089 29.7984 116.309C28.8398 116.91 27.8853 117.527 26.7724 117.767C26.4109 117.848 26.1631 118.096 25.9519 118.437C25.7366 118.79 25.4117 118.904 25.0055 118.802C24.6846 118.721 24.4165 118.774 24.2175 119.03C24.1281 119.144 24.0144 119.318 23.8925 119.282C22.9786 119.014 22.3571 119.554 21.6463 119.838C20.7283 120.199 19.8347 120.614 18.9411 121.024C18.4943 121.227 18.0557 121.45 17.4789 121.272C17.0971 121.808 16.3781 121.446 15.8785 121.71C14.6925 122.328 13.4536 122.839 12.2513 123.432C12.0035 123.554 11.7436 123.712 11.6054 123.981C11.378 124.427 11.053 124.679 10.6631 124.85L9.50954 125.37C9.13991 125.528 8.6403 125.296 8.3641 125.788C8.14882 126.174 7.67765 126.263 7.30802 126.47C6.99932 126.645 6.66219 126.738 6.24788 126.616C5.91887 126.523 5.64673 126.608 5.43551 126.718C4.95215 126.97 4.63126 127.197 4.45661 127.347C4.35506 127.433 4.3185 127.563 4.22102 127.648C4.13166 127.749 3.96106 127.827 3.59956 127.961C3.37209 128.042 3.46145 128.277 3.41271 128.46C3.32741 128.749 3.55081 129.065 3.80265 129.329C3.62799 129.524 3.55488 129.723 3.55081 129.934C3.53863 130.125 3.60768 130.397 3.6158 130.475C3.66048 130.71 3.80265 130.942 4.1804 130.869C4.49722 130.804 4.5216 130.864 4.35912 131.275C4.23727 131.571 4.2332 131.803 4.30226 131.941C4.37131 132.083 4.51347 132.119 4.64751 132.107C4.93997 132.083 5.21211 131.929 5.48831 131.839C5.62642 131.79 5.76046 131.746 5.90262 131.709L6.26413 131.612C6.41035 131.575 6.55658 131.539 6.7028 131.506C7.54361 131.327 8.32754 131.035 9.1196 130.726C9.97259 130.389 10.8906 130.211 11.7273 129.837C12.889 129.321 14.0426 128.801 15.2327 128.363C16.4269 127.928 17.6454 127.567 18.864 127.193C20.1475 126.807 21.4067 126.328 22.6496 125.82C23.8966 125.313 25.1598 124.854 26.4068 124.354C26.8008 124.196 27.1826 124.013 27.5482 123.794C28.718 123.095 29.9893 122.681 31.3298 122.425C31.874 122.324 32.5767 122.669 32.9139 121.978C34.4655 122.133 35.6312 121.243 36.927 120.711C37.5159 120.467 38.1049 120.22 38.7304 120.078C39.2016 119.968 39.7337 120.065 40.0546 119.562C40.1643 119.391 40.4405 119.338 40.6558 119.408C41.2285 119.594 41.7037 119.485 42.1586 119.269C42.6095 119.058 43.0644 118.863 43.5315 118.693C44.0636 118.498 44.6039 118.331 45.14 118.157C45.8265 118.547 45.9443 117.653 46.4195 117.564C46.5576 117.539 46.6876 117.434 46.8298 117.478C47.4065 117.665 47.8574 117.482 48.3245 117.3L53.4749 115.269C53.8121 115.135 54.1736 115.127 54.5554 115.147C54.7828 115.159 55.0103 115.123 55.1037 114.867C55.3149 114.282 55.8024 114.453 56.2654 114.522C56.6594 114.583 57.0493 114.717 57.4393 115.074C57.7764 115.383 57.947 115.805 58.0039 116.236L57.9998 116.244Z" fill="#CBFB0E"/>
<path d="M42.8248 141.326C43.0401 141.257 43.1822 141.188 43.3772 141.152C43.7184 141.087 43.8524 140.932 43.694 140.689C43.4503 140.315 43.6047 140.071 43.6778 139.799C43.759 139.503 43.9418 139.239 43.958 138.926C43.9743 138.618 44.2099 138.382 44.0433 138.012C43.9743 137.858 44.0474 137.696 44.2383 137.647C44.6161 137.541 44.0636 137.119 44.5592 137.046C44.9044 136.993 44.4861 136.587 44.8151 136.485C44.5226 135.872 44.9085 135.478 45.0101 134.995C45.1157 134.483 45.3431 134.012 45.5056 133.517C45.5625 133.338 45.6031 133.163 45.5381 132.936C45.4528 132.647 45.5787 132.408 45.6478 132.156C45.7493 131.795 46.0133 131.494 45.7777 131.019C45.6924 130.848 45.993 130.763 46.0986 130.633C46.2083 130.491 46.1758 130.458 45.6803 130.056C45.8224 129.914 45.9199 129.752 46.1149 129.634C46.3342 129.504 46.0296 129.232 46.1027 129.053C46.1799 128.87 45.9443 128.574 46.3423 128.505C46.123 128.237 46.3423 128.135 46.5048 127.989C46.7485 127.766 46.6998 127.425 46.3951 127.047C46.6104 127.014 46.8663 127.018 46.98 126.953C47.1344 126.864 46.8338 126.689 46.5901 126.527C46.8135 126.3 47.0775 126.097 46.8257 125.678C46.6104 125.321 46.7038 125.008 46.7648 124.712C46.7851 124.606 46.7973 124.557 46.582 124.419C46.4723 124.35 46.387 124.188 46.4479 124.184C47.11 124.127 46.8826 123.696 47.0613 123.444C47.2319 123.205 47.3903 122.953 47.1181 122.555C46.9232 122.271 47.4715 122.25 47.305 121.946C47.175 121.71 47.4715 121.605 47.7031 121.491C47.8736 121.406 47.8858 121.235 47.435 121.02C47.6056 120.756 47.7599 120.504 47.9305 120.264C48.1458 119.956 48.4586 119.684 48.5885 119.343C48.7145 119.022 48.6454 118.62 48.7104 118.266C48.7591 118.014 48.8972 117.795 48.9703 117.552C49.0394 117.308 49.3197 117.145 49.0922 116.78C48.8688 116.414 49.6162 116.471 49.2872 116.057C49.4496 115.679 49.6243 115.297 49.799 114.92C49.8558 114.802 49.8599 114.656 49.9655 114.562C50.1686 114.384 49.738 113.868 50.3392 113.909C50.7819 113.945 50.5667 113.498 51.1109 113.608C51.2409 113.636 51.3059 113.559 51.3912 113.523C51.5415 113.458 51.1597 113.052 51.704 113.234C52.0452 113.348 52.0167 113.141 52.2117 113.137C52.4554 113.133 52.7397 113.161 53.0444 113.238C53.4952 113.348 53.9461 113.604 54.2873 113.965C54.7178 114.424 55.1443 114.875 55.5708 115.326C55.6318 115.391 55.6764 115.48 55.644 115.501C55.2256 115.736 55.5465 116.309 55.8267 116.885C55.4977 116.934 55.124 117.032 55.254 117.365C55.3759 117.657 54.9088 117.645 55.124 117.966C55.3353 118.274 54.462 118.071 54.86 118.482C54.5107 118.563 54.4416 118.778 54.6041 119.099C54.6326 119.156 54.6244 119.213 54.5716 119.229C54.007 119.395 54.1817 119.895 54.1573 120.301C54.1411 120.557 54.1736 120.845 53.7471 120.939C53.5196 120.991 53.548 121.199 53.4018 121.308C53.1906 121.463 53.5602 121.735 53.8446 122.011C53.4181 122.157 53.1906 122.409 53.3246 122.807C53.349 122.884 53.3328 122.953 53.28 122.998C52.8291 123.367 52.8047 123.903 52.6098 124.375C52.5569 124.5 52.5285 124.651 52.6219 124.817C52.7763 125.097 52.6747 125.256 52.4026 125.382C52.1223 125.512 51.9883 125.719 52.2523 126.048C52.4595 126.308 52.427 126.531 52.1305 126.58C51.4765 126.681 52.0736 127.238 51.6552 127.412C51.9761 127.758 51.7162 127.912 51.6065 128.123C51.5293 128.269 51.3871 128.416 51.4928 128.602C51.6471 128.87 51.4643 128.972 51.2003 129.061C51.1109 129.09 51.0378 129.147 51.05 129.216C51.1759 129.955 50.6926 130.483 50.5707 131.133C50.5179 131.413 50.4529 131.689 50.392 131.965C50.3798 132.03 50.3717 132.095 50.3392 132.152C50.2579 132.298 50.1361 132.428 50.0752 132.578C49.998 132.777 49.8274 132.96 49.9492 133.204C50.0833 133.476 49.5837 133.521 49.8843 133.829C49.5187 133.898 50.1564 134.361 49.5553 134.337C49.9127 135.299 49.1288 135.872 49.0313 136.68C49.0069 136.896 48.9866 137.111 48.9135 137.31C48.8404 137.501 48.6941 137.671 48.5926 137.854C48.556 137.915 48.5276 137.984 48.552 138.065C48.7469 138.67 48.7673 139.21 48.1458 139.531C48.5926 140.043 47.5893 140.063 47.9265 140.539C47.9752 140.608 47.8208 140.64 47.768 140.693C47.2278 141.221 47.0207 141.867 47.1588 142.63C47.2034 142.882 46.6064 142.914 47.0288 143.288C46.9516 143.483 46.9151 143.694 46.6023 143.796C46.3586 143.877 46.3667 144.052 46.4845 144.263C46.5454 144.376 46.6185 144.515 46.5332 144.567C46.192 144.787 46.2002 145.128 46.1555 145.453C45.7696 145.493 46.3342 145.851 46.0986 145.928C45.5503 146.115 45.3675 146.427 45.5909 146.907C45.6071 146.939 45.3147 146.907 45.1035 146.903C45.4772 147.244 45.7006 147.561 45.2294 147.678C45.3959 148.604 44.8801 149.295 44.6526 150.087C44.5998 150.265 44.5551 150.456 44.6161 150.667C44.6729 150.866 44.6364 151.005 44.4536 151.122C44.3195 151.208 44.3805 151.386 44.3561 151.524C44.3033 151.817 44.5551 152.203 44.2586 152.426C43.9783 152.637 44.2139 153.039 44.0271 153.295C43.8402 153.551 43.7103 153.831 43.5965 154.115C43.4097 154.599 43.3691 155.143 43.0482 155.569C42.8532 155.825 42.772 156.097 42.776 156.414C42.776 156.589 42.7232 156.747 42.6379 156.889C42.4389 157.206 41.9068 157.397 42.2155 157.909C42.2886 158.031 42.0611 158.096 41.9677 158.185C41.9109 158.238 41.7687 158.27 41.7971 158.343C42.1424 159.103 41.5169 159.537 41.4072 160.142C41.2975 160.752 41.0457 161.316 40.8792 161.909C40.7492 162.36 40.6192 162.807 40.4364 163.237C40.2699 163.623 40.0302 163.993 40.2171 164.504C40.2739 164.659 40.0993 164.756 40.0262 164.878C39.9815 164.959 39.8718 165.02 39.9003 165.118C39.9449 165.276 40.1602 165.483 40.148 165.621C40.1358 165.759 39.8759 165.816 39.8231 165.942C39.6606 166.336 39.5103 166.734 39.4291 167.152C39.3763 167.428 39.4656 167.753 39.4534 168.05C39.4494 168.208 39.4738 168.383 39.4738 168.541C39.5103 168.594 39.5225 168.618 39.4372 168.631C39.2504 168.655 39.295 168.74 39.2585 168.801C39.1976 168.903 39.027 169.053 39.2422 169.118C39.3032 169.126 39.3763 169.126 39.4616 169.122C39.5712 169.114 39.3885 169.187 39.4291 169.199C39.4778 169.215 39.6037 169.199 39.7093 169.187C39.7987 169.175 39.9287 169.134 39.9937 169.118C40.0384 169.106 40.079 169.094 40.0059 169.142C39.8028 169.28 39.7865 169.341 39.819 169.362C39.8353 169.37 39.8637 169.37 39.8921 169.366H39.9043L39.9368 169.39L40.0059 169.443C40.0505 169.479 40.0912 169.516 40.1318 169.553C40.3674 169.776 40.5745 170.024 41.1269 169.938C41.33 169.906 41.4316 169.987 41.3463 170.194C41.2203 170.495 41.3463 170.6 41.4519 170.726L43.4341 173.033C43.5437 173.159 43.6453 173.289 43.7915 173.378C43.9987 173.504 44.1327 173.683 44.2505 173.89C44.4333 174.219 44.7054 174.487 45.0588 174.666C45.1482 174.71 45.2416 174.755 45.3309 174.804C45.3675 174.82 45.4325 174.869 45.4406 174.861L45.465 174.84C45.465 174.84 45.4487 174.853 45.3269 175.007C45.2984 175.043 45.2863 175.064 45.3106 175.035C45.4893 174.84 45.5056 174.796 45.4975 174.812C45.4853 174.824 45.4528 174.901 45.4772 174.861C45.5137 174.775 45.4772 174.861 45.4853 174.877C45.4853 174.885 45.4893 174.889 45.4934 174.885C45.4934 174.97 45.4934 175.052 45.4934 175.141C45.5015 175.299 45.5056 174.897 45.5015 174.873C45.5015 174.84 45.4934 174.812 45.5259 175.019C45.5706 175.238 45.4812 174.682 45.5178 174.893C45.5218 174.913 45.5097 174.861 45.5178 174.889C45.5787 175.149 45.6031 175.177 45.6071 175.165C45.6153 175.153 45.6071 175.1 45.6437 175.165C45.7249 175.291 45.7127 175.173 45.7493 175.182C45.7777 175.182 45.7777 175.149 45.8955 175.234C45.9483 175.271 45.9321 175.23 45.9361 175.21C45.9727 175.157 46.0864 175.068 46.2936 175.133C46.4561 175.173 46.4683 174.991 46.5373 174.901C46.8907 174.446 47.2359 173.996 47.9265 173.866C48.0077 173.849 48.0889 173.821 48.097 173.744C48.1458 173.358 48.4139 173.187 48.7429 173.062C49.1166 172.915 49.0556 172.383 49.4334 172.225C49.799 172.071 49.9533 171.709 50.2214 171.453C50.3351 171.344 50.4326 171.197 50.656 171.21C50.9444 171.222 50.981 171.011 51.1841 170.958C51.3953 170.901 51.4724 170.763 51.5252 170.564C51.5902 170.3 51.773 170.093 52.0858 170.048C52.5732 169.979 52.7479 169.65 52.9672 169.362C53.2718 168.96 53.873 168.789 53.808 168.09C54.4092 168.18 54.1939 167.514 54.8356 167.627C55.0062 167.656 55.0306 167.498 55.1159 167.416C55.3434 167.189 55.3312 166.783 55.6643 166.628C55.9648 166.494 56.0786 166.194 56.2776 165.962C56.6391 165.54 57.0006 165.114 57.3296 164.663C57.5165 164.403 57.5652 164.049 57.8536 163.867C58.1217 163.696 58.2679 163.424 58.4507 163.188C58.6497 162.933 58.7553 162.604 59.0315 162.409C59.454 162.12 59.5718 161.613 59.8561 161.227C60.5588 160.272 61.2209 159.298 61.8951 158.323C62.1226 158.002 62.3013 157.653 62.7806 157.507C62.9878 157.442 62.939 157.17 63.0365 157.015C63.1665 156.812 63.1584 156.52 63.4671 156.435C63.5767 156.402 63.6905 156.361 63.723 156.28C63.8529 155.955 63.8529 155.545 64.0926 155.301C64.3363 155.054 64.71 154.899 64.8562 154.574C64.9699 154.323 65.2177 154.152 65.4167 153.949C65.4492 153.917 65.5752 153.933 65.563 153.884C65.3558 153.206 66.1113 153.149 66.3591 152.767C66.8912 151.955 67.667 151.277 67.7198 150.176C67.7198 150.127 67.797 150.119 67.8295 150.087C68.5241 149.477 68.7678 148.6 69.3202 147.906C69.3486 147.869 69.3446 147.804 69.4136 147.8C70.1325 147.78 70.0716 147.276 70.2463 146.931C70.425 146.582 70.7703 146.322 70.6362 145.798C70.5631 145.506 70.8637 145.359 71.0627 145.185C71.2902 144.99 71.3795 144.734 71.477 144.466C71.7898 143.572 72.2447 142.748 72.6062 141.879C73.5201 141.201 73.7679 140.169 74.2675 139.271C74.43 138.963 74.4665 138.597 74.6128 138.285C74.759 137.968 74.9905 137.692 75.157 137.383C75.2464 137.216 75.3114 137.042 75.3236 136.843C75.3398 136.623 75.3683 136.428 75.5876 136.29C75.8313 136.136 75.8069 135.831 75.8801 135.584C75.9329 135.385 75.7988 135.08 76.0182 134.987C76.5706 134.751 76.3634 134.183 76.6762 133.85C76.3675 133.435 76.9971 133.407 76.863 133.041C76.7412 132.716 77.0011 132.497 77.1067 132.237C77.2002 131.998 77.322 131.77 77.4154 131.531C77.521 131.271 77.6063 131.003 77.7241 130.751C77.9313 130.316 78.1628 129.886 78.4065 129.419C78.2034 129.281 77.9069 129.098 77.651 128.911C77.2367 128.61 77.1514 128.326 77.4601 128.241C77.8176 128.143 78.2887 128.16 78.9914 128.432C79.2879 128.545 79.6048 128.675 79.885 128.736C80.0597 128.777 80.1856 128.712 80.5146 128.671C80.5024 129.159 80.34 129.447 80.2181 129.752L79.1377 132.412C78.7599 133.293 78.3903 134.174 78.0694 135.08C77.9272 135.478 77.8338 135.896 77.7323 136.315C77.6266 136.729 77.5129 137.143 77.3545 137.533C77.5454 138.167 76.9808 138.471 76.9402 139.011C76.8955 139.56 76.5665 139.99 76.3634 140.469C76.2416 140.75 76.1522 141.042 76.1644 141.391C76.1806 141.769 75.8679 142.021 75.6201 142.285C75.5185 142.395 75.3804 142.472 75.4373 142.659C75.4657 142.748 75.5348 142.878 75.4576 142.898C74.8158 143.077 75.2383 143.771 75.0189 144.161C74.8524 144.441 74.8524 144.819 74.9215 145.213C75.0393 145.883 74.6493 146.297 74.4056 146.785C74.3731 146.846 74.365 146.923 74.3447 146.996C74.9621 147.118 74.9824 147.126 75.1124 146.943C75.2505 146.748 75.3033 146.505 75.6242 146.371C76.1238 147.081 75.8151 147.41 75.8029 147.865C75.4414 147.95 75.7541 148.405 75.3642 148.499C75.0636 148.572 75.1124 148.905 74.954 149.092C74.7062 149.392 74.1375 149.49 73.9832 149.851C73.9385 149.953 73.6948 149.953 73.4958 149.953C72.9027 149.953 72.529 150.099 72.4072 150.428C72.2975 150.736 71.8507 150.818 71.3836 150.858C70.6037 150.927 70.0472 151.122 70.0107 151.703C69.9944 151.947 69.9579 152.182 69.6492 152.276C69.3974 152.349 69.3446 152.584 69.2471 152.775C69.1577 152.938 69.1536 153.153 69.0643 153.311C68.983 153.454 68.8206 153.547 68.7231 153.677C68.5809 153.868 68.3535 154.018 68.3616 154.286C68.3697 154.542 68.1991 154.668 68.0813 154.834C67.7767 155.253 67.4558 155.659 67.1268 156.057C67.0537 156.146 66.9562 156.236 66.7856 156.244C66.5053 156.256 66.4281 156.406 66.416 156.585C66.3997 156.902 66.5419 157.308 65.9895 157.279C65.9001 157.275 65.9042 157.397 65.9407 157.49C66.0301 157.718 65.896 157.775 65.7214 157.828C65.4492 157.913 65.2665 158.079 65.0471 158.209C65.5183 158.802 64.8521 158.701 64.7993 158.977C64.7384 159.269 64.4703 159.436 64.3282 159.684C64.2266 159.862 64.2388 160.118 64.117 160.281C63.9748 160.467 63.727 160.577 63.5605 160.748C63.4102 160.902 63.2924 161.081 63.1746 161.255C63.0853 161.393 62.9228 161.499 62.9634 161.706C63.0365 162.1 63 162.397 62.5003 162.376C62.4597 162.624 62.3622 162.819 62.1063 162.92C61.8586 163.018 61.7448 163.237 61.822 163.574C61.8423 163.66 61.7895 163.729 61.7042 163.737C61.0015 163.818 61.1193 164.504 60.8187 164.886C60.7497 164.975 60.8594 165.215 60.7375 165.252C60.2745 165.398 60.1526 165.8 60.047 166.206C59.9698 166.494 59.4255 166.364 59.3443 166.628C59.2712 166.864 59.2996 167.173 59.1859 167.376C59.0965 167.538 58.8203 167.558 58.6985 167.692C58.5766 167.831 58.5807 168.074 58.4629 168.216C58.3613 168.342 58.1582 168.391 58.0161 168.484C57.8089 168.618 57.6058 168.757 57.4149 168.903C57.1915 169.073 57.3377 169.524 56.9925 169.626C56.6554 169.727 56.57 170.068 56.367 170.296C56.1801 170.511 55.9567 170.694 55.7902 170.921C55.6115 171.169 55.4855 171.461 55.3353 171.733C55.3028 171.794 55.2865 171.867 55.2256 171.9C54.5879 172.274 53.9583 172.651 52.9997 172.688C53.085 173.232 52.9672 173.61 52.3295 173.525C52.0127 173.484 52.0574 173.764 51.972 173.918C51.6593 174.511 51.3993 175.149 50.587 175.279C50.4692 175.58 50.1727 175.709 49.9411 175.9C49.7787 176.034 49.6324 176.189 49.4578 176.315C49.1937 176.51 49.08 176.859 48.621 176.863C48.4058 176.863 48.3854 177.042 48.3733 177.232C48.3733 177.326 48.3611 177.431 48.3448 177.501C48.3326 177.57 48.2961 177.622 48.2189 177.635C47.9752 177.663 47.9711 178.041 47.6137 177.882C47.4918 177.821 47.4756 177.968 47.4025 178.004C47.041 178.183 46.781 178.65 46.4154 178.69C46.2489 178.699 46.1514 179.084 46.0011 179.296C45.8468 179.515 45.6681 179.767 45.5137 179.487C45.4934 179.45 45.465 179.405 45.4487 179.491C45.4244 179.616 45.4 179.722 45.3756 179.811C45.3634 179.852 45.3512 179.893 45.3391 179.929C45.3269 179.962 45.3147 180.006 45.3025 179.998C45.2538 180.01 45.2091 179.958 45.1644 179.889C45.075 179.746 44.9938 179.519 44.9004 179.466C44.7054 179.357 44.5267 179.06 44.3602 178.8C44.283 178.678 44.2749 178.366 44.1977 178.28C44.1124 178.187 43.9458 178.268 43.8281 178.207C43.7184 178.154 43.6534 178.012 43.5437 177.947C43.4787 177.907 43.3691 177.931 43.2756 177.915C43.17 177.894 43.0319 177.899 42.9548 177.829C42.776 177.667 42.6461 177.48 42.4673 177.285C42.2602 177.062 42.0287 176.859 41.7037 176.737C41.8378 176.315 41.46 176.359 41.1838 176.298C40.9969 176.258 40.936 176.079 40.8345 175.949C40.5095 175.543 40.2414 175.088 39.689 174.885C39.5834 174.844 39.5875 174.739 39.5672 174.637C39.4413 174.077 38.8523 173.89 38.7954 173.265C38.7792 173.09 38.4339 173.155 38.3283 173.037C38.0887 172.777 37.8531 172.509 37.6256 172.241C37.4022 171.977 37.1544 171.677 36.9798 171.453C36.9189 171.376 37.0042 171.201 36.9879 171.104C36.9757 171.031 36.8661 171.006 36.8498 170.933C36.8254 170.795 36.3624 170.95 36.2649 170.852C36.1715 170.763 36.1674 170.629 36.1999 170.499C36.2852 170.239 35.5785 170.247 35.6109 169.983C35.6272 169.898 35.6109 169.821 35.5663 169.747C35.6313 169.618 35.6353 169.5 35.5825 169.39C35.4282 169.069 35.5541 168.696 35.4972 168.306C35.4891 168.241 35.4038 168.168 35.4282 168.107C35.4769 167.981 35.55 167.859 35.6556 167.753C35.814 167.591 35.9034 167.424 35.9521 167.242C36.0049 167.051 36.0212 166.848 36.0293 166.637C36.0415 166.23 35.9521 165.796 36.0415 165.41C36.0902 165.207 35.9643 164.951 36.2608 164.829C36.3705 164.785 36.3583 164.671 36.3705 164.581C36.4761 163.704 36.598 162.831 37.2154 162.133C37.3738 161.95 37.2194 161.645 37.2885 161.422C37.5322 160.634 37.8206 159.858 38.0724 159.07C38.1374 158.871 38.1983 158.66 38.1212 158.42C38.048 158.189 38.0805 158.014 38.3202 157.905C38.4745 157.836 38.5517 157.738 38.3933 157.572C38.0805 157.247 38.8076 157.312 38.5923 156.999C38.4217 156.751 38.5639 156.548 38.633 156.353C38.6776 156.223 38.836 156.13 38.9538 156.024C39.031 155.955 39.1651 155.907 39.2057 155.825C39.3153 155.602 39.0229 155.232 39.4738 155.131C39.0554 154.534 39.6078 154.241 39.5509 153.758C39.5184 153.502 40.014 153.437 39.9165 153.165C39.819 152.905 39.9896 152.743 40.0627 152.548C40.144 152.324 40.213 152.101 40.2577 151.866C40.3227 151.52 40.7086 151.297 40.6761 150.911C40.6476 150.533 40.8751 150.233 40.9888 149.9C41.1066 149.567 41.2447 149.238 41.3381 148.897C41.4356 148.535 41.4559 148.141 41.5737 147.788C41.6915 147.435 41.8987 147.118 42.0449 146.773C42.1911 146.423 42.317 146.07 42.4389 145.713C42.5608 145.355 42.6176 144.973 42.8045 144.64C42.9548 144.372 42.7801 144.003 43.0726 143.779C43.2269 143.662 43.0441 143.381 42.9385 143.158C42.8207 142.906 42.8857 142.724 43.0116 142.553C43.1538 142.358 43.2228 142.131 43.3691 141.936C43.4909 141.769 43.0644 141.538 42.8532 141.286L42.8248 141.326Z" fill="#CBFB0E"/>
<path d="M79.5398 94.8406C79.6129 94.5279 79.7997 94.2883 80.0516 94.2193C80.2871 94.1543 80.5268 94.0893 80.7664 94.0609L86.8511 93.3948C87.8219 93.2892 88.8089 93.3095 89.7837 93.2324C90.7586 93.1511 91.705 92.9196 92.7245 93.2892C93.1916 93.4557 93.7115 93.3258 94.1868 93.2242C95.8684 92.8709 97.5662 92.6597 99.2681 92.4445C99.914 92.3673 100.544 92.1602 101.226 92.5541C101.449 92.68 101.677 92.4688 101.896 92.3186C102.908 91.6119 104.037 91.4413 105.207 91.6809C105.804 91.8028 106.356 91.7947 106.925 91.7215C107.81 91.6078 108.659 91.1286 109.61 91.7297C109.825 91.6119 110.06 91.5347 110.251 91.3682C110.454 91.1855 110.674 91.023 110.917 91.1164C111.336 91.2748 111.738 91.4007 112.156 91.3114C113.44 91.023 114.744 90.8118 116.011 90.4666C117.278 90.1051 118.603 90.028 119.894 89.7843C121.275 89.5163 122.555 88.9274 123.911 88.6025C127.039 87.8836 130.126 87.0023 133.217 86.1494C133.652 86.0317 134.098 85.9464 134.541 85.853C134.761 85.8042 134.984 85.7555 135.199 85.6905C135.309 85.658 135.414 85.6255 135.52 85.589L135.678 85.528C135.711 85.5118 135.739 85.4996 135.768 85.4834C135.995 85.3534 136.219 85.2681 136.462 85.2031C136.698 85.1382 136.982 85.0732 137.149 84.8701C137.311 84.663 137.328 84.399 137.319 84.1391C137.307 83.8792 137.279 83.607 137.202 83.3512C137.218 83.3228 137.226 83.2537 137.234 83.1847L137.259 82.9857C137.271 82.8516 137.279 82.7176 137.283 82.5877C137.287 82.3237 137.275 82.0556 137.254 81.7916C137.214 81.2637 137.133 80.7357 137.088 80.2077C136.824 77.3608 136.434 74.526 135.934 71.7074C135.837 71.1591 135.796 70.5134 136.056 70.1276C136.15 69.9448 136.142 69.6889 136.007 69.6037C135.678 69.3925 135.638 69.1813 135.869 68.5315L135.792 68.0603L135.752 67.8207C135.76 67.7598 135.703 67.7882 135.67 67.7882L135.557 67.8004C135.252 67.8329 134.947 67.8613 134.639 67.8857C134.322 67.9101 133.964 68.0441 133.721 67.841C133.485 67.6502 133.189 67.5892 132.888 67.5811C132.575 67.5811 132.246 67.642 131.925 67.6948C130.784 67.8898 129.643 68.0563 128.509 68.2878C127.628 68.4665 126.69 68.4705 125.991 69.2747C125.881 69.4006 125.699 69.429 125.54 69.4656C124.415 69.7092 123.29 69.957 122.157 70.1682C121.925 70.2088 121.657 70.1479 121.413 70.0626C120.707 69.8148 120.085 69.9489 119.533 70.4281C119.411 70.5337 119.252 70.7002 119.131 70.6555C118.062 70.2616 117.169 70.8545 116.194 70.9845C115.869 71.0292 115.532 71.1145 115.207 71.0251C114.837 70.9195 114.573 70.952 114.313 71.2485C114.143 71.4434 113.903 71.5571 113.671 71.6262C112.883 71.8699 112.083 72.0689 111.218 71.9714C111.064 71.9511 110.873 71.9795 110.771 72.0892C110.056 72.8568 109.183 72.9583 108.208 72.7593C108.058 72.7309 107.879 72.8243 107.774 72.942C107.554 73.1857 107.286 72.9339 107.051 72.9623C106.892 72.9827 106.681 72.9908 106.6 73.1248C106.238 73.7299 105.69 73.8883 105.133 74.0508C103.939 74.3919 102.741 74.7128 101.583 75.1514C100.442 75.5819 99.0935 75.5088 98.2364 76.6825C98.1552 76.7962 97.9237 76.7312 97.7571 76.7272C97.4241 76.7191 97.0504 76.5891 96.7579 76.6947C95.909 76.9952 94.926 76.9912 94.268 77.7506C94.0121 78.0471 93.6059 77.8034 93.3906 78.1121C93.1754 78.4167 92.9073 78.6238 92.5661 78.6563C92.2411 78.6888 91.8471 78.5385 91.5912 78.6969C91.2379 78.9162 90.9089 79.1762 90.5149 79.3061C90.0478 79.4564 89.6253 79.7813 89.0729 79.5863C88.882 79.5173 88.7561 79.5782 88.6302 79.7366C88.3499 80.0981 87.9721 80.2849 87.5578 80.3499C87.2329 80.3986 86.8511 80.2605 86.5586 80.3742C86.1849 80.5164 85.9006 80.9022 85.531 81.0484C84.6089 81.4139 83.6503 81.682 82.7242 82.0394C81.8794 82.3643 80.9695 82.5958 80.2465 83.1522C80.0434 83.3106 79.8241 83.4162 79.6088 83.538L78.3903 80.0006C78.5365 79.895 78.7152 79.826 78.8817 79.7691C81.9281 78.7091 84.9745 77.6532 88.0412 76.6216C88.6708 76.4063 89.276 76.187 89.7228 75.5697C89.9909 75.1961 90.5555 75.6834 90.8682 75.2489C91.2013 74.7859 91.6928 74.7006 92.2411 74.8306C93.2363 75.0661 94.0608 74.6803 94.8529 74.1807C95.251 73.4781 95.9212 73.3563 96.5548 73.1532C98.3745 72.5643 100.202 71.9836 102.042 71.4353C102.44 71.3175 102.867 71.082 103.261 71.22C103.886 71.4394 104.155 70.9479 104.589 70.7449C105.796 70.1722 107.018 69.6077 108.363 69.4453C108.797 69.3925 109.134 69.1528 109.447 68.8239C109.768 68.4827 110.17 68.3934 110.625 68.5355C110.982 68.6452 111.303 68.6208 111.588 68.3812C111.718 68.2715 111.888 68.1091 112.018 68.1578C113.022 68.5112 113.854 68.0279 114.752 67.837C115.901 67.5892 117.031 67.2684 118.172 66.9963C118.745 66.8582 119.309 66.6998 119.923 66.9679C120.512 66.4927 121.235 66.9597 121.88 66.7973C123.42 66.3993 124.988 66.1109 126.556 65.8023C126.876 65.7373 127.222 65.6357 127.474 65.4002C127.884 65.0144 128.339 64.8316 128.846 64.7585L130.345 64.5351C130.821 64.4742 131.304 64.8194 131.799 64.4133C131.897 64.3321 132.007 64.2752 132.12 64.2305C132.177 64.2102 132.238 64.1899 132.299 64.1737C132.409 64.1574 132.518 64.1371 132.628 64.1168C133.079 64.0518 133.542 64.0112 133.981 63.9381C134.72 63.8163 135.455 63.7716 135.983 63.9909C136.393 64.1615 136.897 64.1371 137.445 64.0559L138.359 63.9219C138.566 63.8203 138.522 64.0843 138.571 64.2102L138.668 64.6651C138.794 65.2743 138.92 65.8876 139.038 66.5008C139.18 67.24 139.367 67.9629 139.472 68.7142C139.525 69.0879 139.562 69.4696 139.549 69.827C139.521 70.0869 139.444 70.3063 139.322 70.554C139.176 70.8464 139.359 71.216 139.379 71.549C139.411 72.0648 139.675 72.5034 139.98 72.9339C139.663 73.5309 139.793 74.1076 139.862 74.6925C139.939 75.2814 140.082 75.8296 140.524 76.3292C140.894 76.7516 140.975 77.3161 140.727 77.7872C140.366 78.4735 140.415 79.1152 140.48 79.7854L140.695 81.9175C140.727 82.2749 140.748 82.6283 140.764 82.9857C140.772 83.205 140.792 83.5015 140.784 83.7533L140.764 84.5249C140.76 85.2641 140.699 85.9261 140.427 86.5515C140.293 86.8642 140.086 87.1566 139.842 87.3922C139.594 87.6277 139.314 87.8105 139.013 87.9689C138.363 88.3182 137.547 88.4887 136.791 88.6878L135.963 88.903C135.703 88.9761 135.443 89.0533 135.191 89.1426C133.786 89.6422 132.376 90.1255 130.934 90.5235C129.484 90.8971 128.026 91.2139 126.556 91.4982C125.008 91.7987 123.477 92.1886 121.949 92.5785C120.422 92.9846 118.871 93.2973 117.335 93.6588C116.852 93.7725 116.373 93.9187 115.901 94.0852C114.403 94.6294 112.847 94.8894 111.251 94.9341C110.601 94.9544 109.89 94.5035 109.329 95.1412C107.599 94.731 106.047 95.4255 104.427 95.7098C103.691 95.8397 102.952 95.9697 102.205 95.994C101.64 96.0144 101.068 95.8032 100.556 96.2337C100.381 96.3799 100.052 96.3758 99.8327 96.2621C99.2397 95.9575 98.6751 95.9697 98.0983 96.0793C97.5297 96.1849 96.9529 96.2743 96.3802 96.3393C95.7262 96.4124 95.0641 96.4449 94.4061 96.4977C93.7643 95.9534 93.3419 96.7941 92.7814 96.7616C92.6189 96.7535 92.4402 96.8226 92.294 96.7413C91.7131 96.4205 91.1485 96.4814 90.5677 96.5464L87.3588 96.8469L84.15 97.1109C83.7275 97.1475 83.3254 97.05 82.9152 96.9119C82.6714 96.8307 82.4074 96.7982 82.2043 97.0175C81.7494 97.513 81.2782 97.2043 80.7989 96.9972C80.3887 96.8226 80.0191 96.5748 79.7307 96.1159C79.4829 95.7179 79.4626 95.263 79.5682 94.8366L79.5398 94.8406Z" fill="#CBFB0E"/>
<path d="M103.777 103.731C103.72 103.52 103.663 103.386 103.639 103.195C103.594 102.862 103.46 102.736 103.241 102.906C102.903 103.166 102.692 103.028 102.453 102.967C102.193 102.902 101.965 102.736 101.685 102.736C101.413 102.736 101.21 102.517 100.877 102.703C100.739 102.781 100.596 102.72 100.556 102.537C100.47 102.171 100.085 102.744 100.028 102.257C99.9871 101.92 99.6215 102.358 99.5362 102.041C98.9919 102.366 98.6507 102.013 98.2242 101.944C97.7734 101.875 97.3591 101.688 96.9245 101.562C96.7701 101.517 96.6117 101.493 96.4127 101.574C96.1568 101.68 95.9455 101.574 95.7303 101.526C95.4134 101.452 95.1494 101.213 94.7311 101.485C94.5848 101.582 94.5077 101.294 94.3899 101.205C94.2639 101.107 94.2355 101.144 93.8862 101.668C93.7603 101.542 93.6141 101.461 93.5125 101.278C93.3947 101.075 93.1591 101.4 93.0048 101.339C92.8464 101.278 92.5864 101.538 92.5214 101.152C92.2899 101.396 92.2005 101.184 92.0706 101.038C91.8715 100.819 91.575 100.896 91.2501 101.233C91.2176 101.026 91.2176 100.774 91.1566 100.669C91.0754 100.526 90.9292 100.839 90.7911 101.099C90.588 100.904 90.4052 100.665 90.0478 100.957C89.7431 101.209 89.471 101.152 89.2151 101.123C89.1257 101.111 89.081 101.107 88.9673 101.335C88.9104 101.452 88.7764 101.554 88.7683 101.493C88.6992 100.847 88.3418 101.123 88.1184 100.973C87.9112 100.839 87.6878 100.717 87.3669 101.042C87.1395 101.274 87.0948 100.738 86.847 100.949C86.6561 101.111 86.5546 100.835 86.4449 100.628C86.3637 100.474 86.2215 100.49 86.0672 100.965C85.8397 100.839 85.6244 100.734 85.4132 100.608C85.1451 100.445 84.9014 100.193 84.6089 100.133C84.3368 100.072 84.0159 100.226 83.7275 100.238C83.5204 100.246 83.3335 100.161 83.1304 100.149C82.9314 100.137 82.7689 99.9092 82.509 100.214C82.249 100.518 82.2043 99.7873 81.92 100.21C81.6072 100.145 81.2904 100.1 80.9777 100.047C80.8802 100.031 80.7664 100.068 80.6811 99.9985C80.5146 99.8645 80.1937 100.433 80.1287 99.8564C80.08 99.4299 79.7835 99.7833 79.7672 99.235C79.7632 99.105 79.6941 99.0685 79.6494 98.9994C79.5723 98.8776 79.3407 99.3771 79.3692 98.8085C79.3854 98.4511 79.2351 98.5527 79.1904 98.374C79.1336 98.1506 79.093 97.8744 79.0808 97.5658C79.0605 97.1068 79.1458 96.5951 79.3489 96.1524C79.6088 95.5839 79.8769 95.0315 80.145 94.4873C80.1815 94.4101 80.2506 94.333 80.275 94.3614C80.5877 94.6782 80.9939 94.1949 81.4407 93.7563C81.5666 94.0568 81.7332 94.3858 81.9972 94.1624C82.2287 93.9675 82.3181 94.4183 82.5577 94.1258C82.7933 93.8416 82.7811 94.731 83.0695 94.2477C83.2076 94.5685 83.4066 94.5807 83.6666 94.3573C83.7113 94.3167 83.7682 94.3127 83.7885 94.3614C84.0322 94.8731 84.4465 94.597 84.8161 94.5442C85.0517 94.5076 85.3076 94.4264 85.4457 94.8244C85.5188 95.0356 85.7056 94.9665 85.8194 95.0924C85.9818 95.2711 86.1849 94.8609 86.4043 94.5401C86.583 94.9341 86.8267 95.1249 87.176 94.9341C87.241 94.8975 87.3101 94.9016 87.3548 94.9503C87.7244 95.3402 88.2118 95.2914 88.6464 95.4255C88.7642 95.462 88.8983 95.4701 89.0445 95.3564C89.2882 95.1696 89.4385 95.2508 89.5685 95.5026C89.6984 95.7666 89.8893 95.8763 90.1737 95.5798C90.4011 95.3483 90.6002 95.3564 90.657 95.6448C90.7748 96.2824 91.2501 95.6367 91.4207 96.0306C91.7172 95.6773 91.8675 95.9209 92.0584 96.0062C92.1924 96.0672 92.3264 96.1931 92.493 96.0712C92.7286 95.8966 92.826 96.059 92.9114 96.3149C92.9398 96.4002 92.9926 96.4652 93.0495 96.4489C93.7034 96.2621 94.1868 96.6926 94.7717 96.7616C95.0235 96.7901 95.2713 96.8307 95.5191 96.8672C95.5759 96.8754 95.6369 96.8754 95.6897 96.9038C95.8196 96.9728 95.9374 97.0825 96.0755 97.1272C96.2542 97.1881 96.4208 97.3424 96.6361 97.2084C96.8757 97.0581 96.9204 97.5455 97.1966 97.2246C97.2575 97.582 97.6718 96.92 97.6515 97.513C98.5126 97.0947 99.0326 97.8216 99.7515 97.8663C99.9424 97.8785 100.137 97.8866 100.312 97.9475C100.483 98.0085 100.633 98.1425 100.795 98.2318C100.852 98.2643 100.913 98.2887 100.982 98.2603C101.527 98.0328 102.014 97.9841 102.294 98.573C102.761 98.1019 102.761 99.0928 103.196 98.7395C103.257 98.6908 103.285 98.837 103.33 98.8857C103.789 99.3934 104.362 99.568 105.052 99.3974C105.28 99.3406 105.292 99.9295 105.641 99.4949C105.816 99.5599 106.003 99.5883 106.084 99.8929C106.149 100.128 106.303 100.116 106.498 99.9904C106.6 99.9254 106.726 99.8482 106.774 99.9335C106.957 100.262 107.262 100.242 107.554 100.271C107.579 100.648 107.916 100.08 107.981 100.311C108.127 100.843 108.403 101.014 108.838 100.778C108.866 100.762 108.826 101.05 108.813 101.258C109.134 100.876 109.427 100.644 109.512 101.107C110.349 100.912 110.946 101.404 111.645 101.603C111.803 101.647 111.97 101.688 112.164 101.623C112.343 101.562 112.469 101.595 112.563 101.769C112.632 101.899 112.798 101.834 112.92 101.855C113.18 101.899 113.537 101.643 113.724 101.932C113.899 102.204 114.273 101.964 114.492 102.139C114.711 102.318 114.955 102.439 115.203 102.545C115.625 102.72 116.109 102.748 116.474 103.061C116.689 103.248 116.933 103.325 117.213 103.317C117.368 103.313 117.51 103.361 117.632 103.447C117.904 103.637 118.042 104.157 118.517 103.845C118.631 103.771 118.676 103.991 118.749 104.084C118.793 104.137 118.814 104.283 118.879 104.247C119.581 103.897 119.927 104.511 120.463 104.608C121.003 104.71 121.49 104.949 122.006 105.108C122.4 105.229 122.79 105.355 123.164 105.534C123.497 105.692 123.81 105.928 124.281 105.737C124.423 105.68 124.496 105.851 124.602 105.92C124.671 105.965 124.72 106.07 124.809 106.042C124.955 105.997 125.154 105.782 125.276 105.79C125.398 105.802 125.43 106.058 125.54 106.107C125.711 106.184 125.881 106.261 126.056 106.326C126.141 106.359 126.231 106.391 126.32 106.415L126.722 106.537C127.124 106.651 127.599 106.631 128.05 106.712C128.53 106.797 129.147 106.789 129.464 107.081C129.797 107.394 130.276 107.512 130.703 107.695C131.572 108.072 132.254 108.503 133.627 108.584C133.916 108.604 133.916 108.803 134.139 108.868C134.411 108.946 134.777 108.982 135.134 109.027C135.285 109.047 135.455 109.059 135.622 109.071L135.869 109.096C135.91 109.12 135.89 109.173 135.894 109.214C135.886 109.331 135.869 109.478 135.699 109.644C134.781 110.534 134.854 111.045 134.614 111.715C134.44 112.195 134.237 112.662 134.582 113.06C134.708 113.206 134.647 113.413 134.35 113.592C133.924 113.844 133.847 114.083 133.733 114.339L131.889 118.599C131.832 118.733 131.771 118.863 131.763 119.018C131.751 119.233 131.661 119.408 131.535 119.578C131.336 119.846 131.235 120.167 131.247 120.52C131.259 120.886 131.328 121.264 130.841 121.406C130.784 121.422 130.743 121.458 130.768 121.503C131.076 122.12 130.548 122.393 130.443 122.839C130.341 123.29 130.081 123.676 129.894 124.09L129.5 125C129.427 125.171 129.31 125.313 129.119 125.43C128.944 125.54 129.119 125.828 129.07 126.007C129.017 126.186 128.96 126.373 128.741 126.466C128.493 126.572 128.842 126.901 128.611 127.002C128.587 127.01 128.619 127.055 128.591 127.059C128.347 127.051 128.168 127.38 128.05 127.66C127.928 127.948 127.839 128.261 127.652 128.505C127.279 128.996 127.1 129.638 126.82 130.198C126.629 130.576 126.466 131.007 126.198 131.262C125.959 131.482 126.007 132.111 125.601 132.075C125.451 132.058 125.435 132.383 125.365 132.57C125.028 133.488 124.659 134.475 124.078 134.775C124.045 134.792 124.009 134.816 123.98 134.853C123.98 134.857 123.972 134.865 123.968 134.865L123.948 134.853C123.948 134.853 123.924 134.84 123.911 134.836C123.887 134.828 123.867 134.824 123.846 134.828C123.493 134.918 122.977 134.601 122.465 134.207C121.897 133.764 121.478 134.02 120.893 133.577C120.345 133.159 119.821 133.07 119.281 132.806C119.053 132.692 118.793 132.611 118.611 132.339C118.379 131.989 118.111 131.993 117.888 131.766C117.66 131.531 117.445 131.474 117.169 131.449C116.799 131.421 116.401 131.238 116.161 130.905C116.048 130.767 116.019 130.694 115.954 130.621C115.893 130.552 115.828 130.503 115.755 130.458C115.613 130.377 115.451 130.332 115.296 130.276C114.87 130.117 114.585 129.618 113.98 129.874C113.935 129.281 113.387 129.67 113.359 129.037C113.351 128.866 113.204 128.891 113.115 128.834C112.867 128.684 112.502 128.813 112.303 128.541C112.124 128.298 111.831 128.269 111.592 128.152C111.145 127.928 110.706 127.68 110.247 127.49C109.983 127.38 109.658 127.42 109.443 127.193C109.248 126.982 108.98 126.909 108.736 126.791C108.472 126.665 108.155 126.649 107.944 126.425C107.623 126.084 107.152 126.088 106.762 125.902C105.808 125.434 104.829 125.02 103.882 124.541C103.57 124.383 103.232 124.269 103.054 123.834C102.977 123.648 102.733 123.745 102.583 123.68C102.384 123.595 102.115 123.652 102.014 123.375C101.977 123.274 101.929 123.176 101.851 123.156C101.547 123.079 101.173 123.152 100.933 122.953C100.69 122.754 100.523 122.417 100.223 122.324C99.983 122.25 99.8124 122.035 99.6175 121.877C99.585 121.852 99.5931 121.722 99.5525 121.747C98.9432 122.047 98.8457 121.333 98.4883 121.138C97.7246 120.719 97.0869 120.049 96.0796 120.13C96.0349 120.13 96.0268 120.061 95.9943 120.033C95.4175 119.436 94.6295 119.261 93.9877 118.79C93.9552 118.766 93.8943 118.774 93.8903 118.709C93.874 118.01 93.415 118.12 93.0982 117.978C92.7814 117.836 92.5499 117.523 92.0706 117.681C91.8025 117.771 91.6766 117.487 91.5263 117.3C91.3557 117.088 91.1241 117.015 90.8804 116.938C90.0721 116.682 89.3329 116.292 88.5652 115.951C88.0006 115.078 87.0826 114.859 86.2987 114.392C86.0347 114.233 85.7057 114.197 85.4335 114.051C85.1614 113.904 84.9298 113.681 84.6658 113.515C84.5236 113.425 84.3693 113.36 84.1906 113.344C83.9915 113.328 83.8169 113.295 83.7153 113.08C83.6016 112.84 83.3213 112.861 83.102 112.788C82.9273 112.731 82.6349 112.853 82.578 112.629C82.4318 112.085 81.8916 112.264 81.6276 111.943C81.2092 112.223 81.2701 111.61 80.9167 111.728C80.604 111.833 80.4415 111.569 80.2181 111.455C80.015 111.35 79.82 111.228 79.621 111.118C79.4017 110.997 79.1742 110.895 78.967 110.757C78.6055 110.521 78.2562 110.265 77.8703 109.993C77.7119 110.18 77.4967 110.452 77.2854 110.688C76.9442 111.066 76.668 111.122 76.6437 110.818C76.6152 110.465 76.7087 110.01 77.0742 109.352C77.2286 109.076 77.3992 108.779 77.5048 108.515C77.5738 108.349 77.5373 108.227 77.5576 107.906C77.9922 107.951 78.2237 108.129 78.4756 108.267C79.946 109.076 81.3838 109.949 82.9152 110.639C83.5894 110.94 84.3612 111.066 85.0273 111.382C85.6163 111.2 85.8275 111.748 86.3109 111.788C86.7983 111.829 87.1476 112.154 87.5619 112.341C87.8056 112.45 88.0574 112.532 88.3743 112.507C88.7155 112.483 88.9145 112.779 89.1338 113.011C89.2232 113.104 89.2841 113.238 89.4588 113.173C89.54 113.145 89.6619 113.072 89.6741 113.145C89.7919 113.762 90.4418 113.328 90.7708 113.527C91.0145 113.673 91.3557 113.649 91.7091 113.559C92.3143 113.405 92.6636 113.75 93.0901 113.949C93.1429 113.973 93.2119 113.978 93.2769 113.994C93.411 113.385 93.4191 113.364 93.2647 113.255C93.0982 113.133 92.8829 113.1 92.7814 112.804C93.4353 112.268 93.7115 112.544 94.1096 112.52C94.1705 112.865 94.5808 112.528 94.6498 112.897C94.7026 113.182 94.9951 113.112 95.1575 113.242C95.4134 113.454 95.4866 113.99 95.8034 114.099C95.8927 114.132 95.8887 114.363 95.8846 114.558C95.8724 115.131 95.9984 115.48 96.2908 115.561C96.567 115.639 96.632 116.061 96.6645 116.512C96.7214 117.267 96.9041 117.783 97.4281 117.742C97.6515 117.726 97.8627 117.734 97.9521 118.019C98.0252 118.254 98.2364 118.27 98.407 118.343C98.5573 118.408 98.7482 118.384 98.8944 118.453C99.0244 118.514 99.1097 118.656 99.2316 118.737C99.4062 118.851 99.5484 119.05 99.7881 119.005C100.016 118.961 100.137 119.103 100.292 119.192C100.682 119.416 101.063 119.659 101.441 119.915C101.527 119.972 101.612 120.049 101.628 120.216C101.657 120.484 101.795 120.537 101.953 120.516C102.237 120.48 102.591 120.277 102.599 120.817C102.599 120.906 102.709 120.882 102.79 120.829C102.985 120.703 103.046 120.829 103.111 120.983C103.208 121.227 103.371 121.369 103.509 121.556C104.004 120.995 103.968 121.645 104.22 121.649C104.488 121.649 104.658 121.877 104.894 121.962C105.06 122.023 105.288 121.962 105.446 122.047C105.625 122.145 105.747 122.364 105.913 122.49C106.064 122.604 106.238 122.677 106.409 122.75C106.543 122.807 106.657 122.933 106.835 122.852C107.181 122.697 107.449 122.661 107.485 123.14C107.709 123.124 107.896 123.172 108.017 123.392C108.135 123.603 108.346 123.66 108.635 123.513C108.708 123.477 108.773 123.509 108.793 123.591C108.956 124.245 109.549 123.972 109.93 124.155C110.02 124.2 110.219 124.033 110.268 124.139C110.463 124.537 110.836 124.549 111.214 124.541C111.482 124.537 111.446 125.085 111.693 125.093C111.913 125.101 112.181 124.992 112.376 125.045C112.53 125.085 112.591 125.345 112.733 125.422C112.875 125.499 113.091 125.422 113.237 125.491C113.367 125.552 113.444 125.723 113.55 125.833C113.704 125.987 113.862 126.133 114.025 126.271C114.216 126.434 114.585 126.161 114.736 126.454C114.886 126.738 115.203 126.722 115.442 126.844C115.666 126.957 115.869 127.108 116.104 127.189C116.356 127.278 116.641 127.299 116.909 127.347C116.966 127.36 117.035 127.347 117.079 127.392C117.542 127.859 117.957 128.302 118.473 129.301C118.879 129.029 119.147 128.964 119.492 129.691C119.671 130.052 119.841 129.89 119.996 129.91C120.296 129.951 120.577 129.963 120.865 130.073C121.157 130.182 121.466 130.393 121.884 130.856C122.006 130.848 122.148 130.913 122.307 131.011L122.425 131.084L122.486 131.124C122.486 131.124 122.506 131.1 122.518 131.092C122.559 131.039 122.599 130.99 122.636 130.929C122.742 130.759 122.831 130.552 122.941 130.385C123.115 130.125 123.156 129.646 123.509 129.654C123.68 129.654 123.676 129.394 123.655 129.134C123.635 128.87 123.599 128.606 123.737 128.533C123.968 128.395 123.899 127.916 124.297 127.916C124.443 127.912 124.435 127.709 124.508 127.607C124.89 127.067 125.049 126.32 125.516 125.824C125.719 125.633 125.642 125.305 125.711 125.045C125.784 124.76 125.853 124.476 126.243 124.342C126.296 124.326 126.361 124.293 126.328 124.249C125.93 123.708 126.462 123.55 126.531 123.205C126.6 122.851 126.791 122.551 126.974 122.246C127.055 122.104 127.303 122.035 127.36 121.885C127.425 121.718 127.335 121.487 127.36 121.304C127.38 121.134 127.486 120.995 127.514 120.829C127.535 120.727 127.482 120.593 127.47 120.48C127.453 120.342 127.405 120.191 127.441 120.074C127.599 119.558 127.957 119.127 127.859 118.506C128.286 118.469 128.071 118.173 127.993 117.921C127.941 117.75 128.067 117.641 128.128 117.511C128.331 117.089 128.578 116.743 128.522 116.158C128.505 116.053 128.607 116.008 128.688 115.939C128.916 115.748 129.009 115.501 129.106 115.265C129.208 115.025 129.318 114.798 129.614 114.562C129.781 114.428 129.525 114.262 129.578 114.12C129.829 113.474 130.114 112.836 130.422 112.182C130.471 112.081 130.739 111.906 130.853 111.776C130.938 111.679 130.886 111.618 130.971 111.52C131.133 111.321 130.585 111.46 130.622 111.342C130.678 111.269 130.589 111.252 130.581 111.208C130.561 111.163 130.561 111.11 130.569 111.057C130.589 110.814 129.695 111.045 129.667 110.822C129.63 110.631 129.354 110.521 128.976 110.534C128.347 110.558 127.981 110.416 127.478 110.416C127.396 110.416 127.262 110.473 127.21 110.448C127.104 110.4 127.015 110.335 126.95 110.241C126.751 109.957 126.34 109.888 125.946 109.867C125.552 109.843 125.175 109.945 124.841 109.859C124.663 109.815 124.427 109.937 124.342 109.648C124.309 109.543 124.208 109.555 124.127 109.543C123.351 109.445 122.583 109.335 122.002 108.734C121.852 108.58 121.568 108.734 121.373 108.669C120.686 108.434 120.016 108.162 119.33 107.926C119.155 107.865 118.972 107.808 118.753 107.886C118.542 107.963 118.387 107.93 118.31 107.699C118.257 107.548 118.176 107.471 118.018 107.634C117.709 107.946 117.815 107.228 117.522 107.443C117.291 107.613 117.12 107.475 116.949 107.41C116.836 107.37 116.762 107.215 116.677 107.102C116.62 107.029 116.584 106.899 116.515 106.858C116.324 106.752 115.974 107.049 115.914 106.61C115.357 107.033 115.13 106.493 114.695 106.558C114.463 106.594 114.439 106.107 114.187 106.212C113.948 106.314 113.818 106.151 113.647 106.082C113.456 106.009 113.257 105.944 113.05 105.908C112.745 105.851 112.571 105.477 112.221 105.518C111.884 105.554 111.628 105.339 111.336 105.234C111.043 105.124 110.759 104.998 110.459 104.917C110.142 104.831 109.792 104.827 109.484 104.722C109.175 104.62 108.903 104.421 108.602 104.291C108.302 104.157 107.989 104.044 107.676 103.938C107.363 103.832 107.026 103.792 106.738 103.621C106.506 103.483 106.169 103.67 105.982 103.394C105.885 103.248 105.629 103.438 105.426 103.548C105.198 103.674 105.04 103.617 104.89 103.499C104.719 103.365 104.524 103.308 104.354 103.179C104.207 103.065 103.992 103.499 103.761 103.719L103.777 103.731Z" fill="#CBFB0E"/>
<path d="M83.037 129.536C83.3457 129.451 83.6422 129.496 83.821 129.683C83.9875 129.857 84.1581 130.032 84.2921 130.227L87.696 135.19C88.2281 135.99 88.6667 136.855 89.1826 137.667C89.6984 138.479 90.3321 139.198 90.4702 140.254C90.5311 140.738 90.8926 141.127 91.1932 141.497C92.2574 142.805 93.2241 144.186 94.1665 145.579C94.528 146.107 94.991 146.566 94.9463 147.341C94.9301 147.597 95.2225 147.699 95.4541 147.82C96.5264 148.385 97.1885 149.295 97.4891 150.432C97.6434 151.013 97.8912 151.496 98.208 151.963C98.6995 152.686 99.5078 153.214 99.3778 154.327C99.5768 154.465 99.7474 154.635 99.983 154.725C100.235 154.822 100.475 154.94 100.499 155.2C100.54 155.638 100.604 156.049 100.869 156.374C101.681 157.377 102.428 158.433 103.293 159.391C104.155 160.358 104.804 161.483 105.568 162.518C105.974 163.075 106.458 163.566 106.937 164.054C107.258 164.334 107.501 164.561 107.766 164.837C107.92 164.988 108.111 165.118 108.33 165.138C108.549 165.162 108.761 165.081 108.948 164.975C109.138 164.87 109.309 164.736 109.488 164.614L114.065 161.373C114.793 160.865 115.633 160.5 116.279 159.895C117.591 158.668 119.305 158.022 120.621 156.812C121.633 156.43 122.421 155.72 123.286 155.119L125.504 153.567L125.768 153.38L125.816 153.344L125.8 153.332L125.739 153.275L125.146 152.722L124.192 151.841C124.062 151.723 123.96 151.597 123.867 151.439L123.798 151.305C123.761 151.244 123.724 151.183 123.692 151.118C123.627 150.988 123.574 150.85 123.53 150.7C123.465 150.472 123.27 150.245 123.046 150.196C122.498 150.083 122.169 149.786 122.075 149.218L120.325 147.544C120.036 147.264 119.642 147.024 119.549 146.626C119.374 145.887 118.895 145.481 118.403 145.059C117.546 144.32 116.689 143.576 115.82 142.849C115.142 142.285 114.557 141.574 113.505 141.546C113.338 141.542 113.2 141.42 113.078 141.318C112.209 140.591 111.332 139.877 110.475 139.133C110.3 138.983 110.19 138.731 110.113 138.488C109.886 137.781 109.415 137.375 108.708 137.241C108.549 137.212 108.322 137.188 108.285 137.066C107.956 135.998 106.978 135.641 106.299 134.95C106.076 134.723 105.808 134.507 105.694 134.195C105.564 133.841 105.381 133.655 104.995 133.622C104.744 133.602 104.512 133.476 104.325 133.334C103.675 132.846 103.058 132.327 102.644 131.583C102.57 131.449 102.445 131.311 102.298 131.295C101.275 131.165 100.702 130.519 100.316 129.618C100.259 129.48 100.081 129.39 99.9221 129.374C99.5972 129.337 99.6581 128.976 99.5037 128.801C99.3981 128.684 99.2763 128.517 99.126 128.525C98.4314 128.574 98.0008 128.217 97.5622 127.851C96.6239 127.079 95.7222 126.259 94.7351 125.548C93.7603 124.85 93.1226 123.688 91.6887 123.603C91.5506 123.595 91.4816 123.367 91.4004 123.225C91.2338 122.941 91.1485 122.563 90.9089 122.372C90.2143 121.824 89.7188 121 88.7439 120.841C88.3621 120.78 88.3662 120.313 87.9925 120.289C87.6228 120.269 87.3141 120.143 87.111 119.875C86.9201 119.619 86.8511 119.204 86.5871 119.07C86.2256 118.884 85.8397 118.733 85.5351 118.461C85.1736 118.14 84.6902 117.941 84.5886 117.369C84.5521 117.17 84.4424 117.093 84.2434 117.068C83.7925 117.011 83.4513 116.78 83.1954 116.459C82.9964 116.203 82.9355 115.805 82.6999 115.606C82.3993 115.354 81.9322 115.297 81.6276 115.046C80.8761 114.424 80.1775 113.738 79.4504 113.092C78.7761 112.507 78.1587 111.825 77.3383 111.455C77.1067 111.35 76.9118 111.208 76.7046 111.078L79.2839 108.369C79.4423 108.446 79.5804 108.568 79.7104 108.686C81.9891 110.818 84.3003 112.926 86.6521 114.993C87.1354 115.419 87.6188 115.817 88.358 115.878C88.8048 115.915 88.6586 116.642 89.1826 116.674C89.7391 116.711 90.0559 117.076 90.2143 117.608C90.5067 118.563 91.2419 119.054 92.0624 119.44C92.8545 119.395 93.2972 119.887 93.7887 120.301L98.0618 123.855C98.3664 124.111 98.7888 124.33 98.8863 124.724C99.0407 125.349 99.589 125.292 99.9911 125.524C101.108 126.178 102.229 126.836 103.103 127.81C103.387 128.127 103.765 128.257 104.203 128.314C104.654 128.371 104.947 128.639 105.089 129.082C105.198 129.427 105.402 129.666 105.755 129.752C105.913 129.788 106.141 129.825 106.177 129.959C106.458 130.958 107.311 131.34 107.981 131.916C108.842 132.66 109.731 133.366 110.621 134.081C111.064 134.434 111.519 134.78 111.669 135.421C112.388 135.584 112.437 136.441 112.961 136.831C114.199 137.752 115.345 138.8 116.547 139.775C116.795 139.978 117.083 140.173 117.416 140.214C117.965 140.279 118.375 140.518 118.741 140.851L119.837 141.83C120.178 142.147 120.211 142.732 120.828 142.841C121.308 142.931 121.633 143.381 122.014 143.686C122.335 143.942 122.595 144.255 122.681 144.718C122.75 145.079 122.965 145.331 123.213 145.546C123.769 146.025 124.318 146.521 124.854 147.024C125.175 147.333 125.536 147.601 125.837 147.926C125.987 148.089 126.125 148.267 126.235 148.466C126.267 148.519 126.279 148.56 126.32 148.629C126.365 148.702 126.409 148.775 126.45 148.852C126.531 149.002 126.604 149.169 126.657 149.331C126.787 149.725 127.299 150.038 127.628 150.395C128.115 150.931 128.814 151.317 129.639 151.772C129.748 152.426 130.386 152.97 131.011 153.567L131.129 153.677L131.158 153.705C131.158 153.705 131.141 153.722 131.133 153.73L131.068 153.774L130.825 153.961C130.67 154.087 130.528 154.209 130.402 154.339C130.15 154.595 129.963 154.863 129.846 155.175C129.647 155.703 128.834 156.292 127.989 156.524C127.372 156.69 126.889 156.893 126.454 157.129C126.235 157.247 126.028 157.373 125.824 157.507C125.654 157.62 125.483 157.738 125.309 157.856C124.179 158.648 123.103 159.517 121.897 160.183C121.04 160.658 120.26 161.219 119.484 161.804C118.643 162.433 117.701 162.933 116.88 163.586C115.747 164.496 114.622 165.414 113.432 166.247L112.53 166.864L111.494 167.546C110.589 168.164 109.687 168.72 108.712 168.854C108.2 168.931 107.644 168.87 107.16 168.663C106.673 168.46 106.255 168.151 105.865 167.786C105.475 167.424 105.117 166.99 104.764 166.559L103.911 165.552C102.908 164.378 101.953 163.16 100.978 161.962C100.669 161.584 100.336 161.227 99.983 160.894C98.8498 159.822 97.9521 158.567 97.2169 157.19C96.9163 156.633 97.0057 155.801 96.2015 155.598C95.7993 153.904 94.5199 152.848 93.5409 151.569C93.0982 150.988 92.6595 150.399 92.3061 149.758C92.0421 149.274 91.969 148.677 91.3597 148.43C91.1526 148.344 91.0104 148.056 91.0104 147.812C91.0104 147.158 90.7586 146.667 90.4011 146.216C90.0518 145.769 89.7106 145.315 89.3938 144.844C89.0364 144.303 88.7114 143.747 88.3743 143.195C88.5652 142.386 87.6269 142.411 87.4035 141.911C87.3385 141.765 87.1963 141.643 87.2004 141.481C87.2207 140.827 86.912 140.364 86.5952 139.889C85.4254 138.138 84.2962 136.359 83.1589 134.593C82.9355 134.243 82.838 133.85 82.7649 133.431C82.7202 133.183 82.6268 132.94 82.3424 132.867C81.6966 132.708 81.7494 132.156 81.7088 131.64C81.6722 131.202 81.7169 130.763 81.9891 130.296C82.2246 129.89 82.6146 129.658 83.037 129.545V129.536Z" fill="#CBFB0E"/>
</svg>
