<svg width="163" height="61" viewBox="0 0 163 61" fill="none" xmlns="http://www.w3.org/2000/svg">
<path d="M70.6227 12.2493H75.0006V32.1382L85.8441 32.0706L85.7415 35.9259H70.6227V12.2493Z" fill="#EDEDED"/>
<path d="M95.162 19.4544C100.023 19.4544 102.912 21.8894 102.912 27.9103C102.912 34.0321 100.023 36.3317 95.162 36.3317C90.3347 36.3317 87.5479 33.8968 87.5479 27.9103C87.5444 21.8894 90.3324 19.4544 95.162 19.4544ZM95.1965 33.0851C97.5076 33.0851 98.7311 32.0362 98.7311 27.9103C98.7311 23.9529 97.5076 22.701 95.1965 22.701C92.8854 22.701 91.7299 23.9529 91.7299 27.9103C91.7253 32.0362 92.8474 33.0851 95.1931 33.0851H95.1965Z" fill="#EDEDED"/>
<path d="M110.318 15.3274V19.8259H116.13V23.1069H110.318V30.3108C110.318 32.2391 110.663 32.8478 112.153 32.8478C113.173 32.8478 114.77 32.6105 115.891 32.3411L116.401 35.551C114.939 35.9225 112.866 36.3283 110.996 36.3283C107.631 36.3283 106.238 34.6706 106.238 30.8485V23.1069H103.927V20.5022L106.51 19.9955L107.394 15.3274H110.318Z" fill="#EDEDED"/>
<path d="M129.351 23.5803C128.914 23.4947 128.47 23.4494 128.025 23.445C126.971 23.445 125.03 24.9354 123.13 27.4357V35.9248H118.982V24.69L118.881 19.8866L122.586 19.7513L122.926 23.4714C124.557 21.2726 126.393 19.4796 128.127 19.4796C128.662 19.4895 129.195 19.5347 129.724 19.6149L129.351 23.5803Z" fill="#EDEDED"/>
<path d="M138.189 19.4544C142.539 19.4544 145.089 21.4836 145.089 25.6106C145.089 26.3202 145.054 27.4712 144.918 28.2473C143.42 28.3493 140.873 28.3826 134.824 28.4502C134.858 31.8998 135.843 32.8811 138.625 32.8811C140.087 32.8811 143.18 32.4409 144.676 32.1038L145.084 35.1819C143.356 35.7551 140.155 36.3283 137.81 36.3283C133.221 36.3283 130.638 34.5021 130.638 28.0077C130.646 22.4981 133.633 19.4544 138.189 19.4544ZM139.991 17.1547H137.033L132.818 11.7426L137.135 11.5729L139.991 17.1547ZM140.912 25.8468C140.942 25.5658 140.954 25.2832 140.947 25.0007C140.947 23.343 140.025 22.364 138.193 22.364C136.12 22.364 135.1 23.7167 134.896 25.9832C137.098 25.9476 139.548 25.9087 140.908 25.8468H140.912Z" fill="#EDEDED"/>
<path d="M147.942 11.37L152.09 11.0662V27.7074H152.327L158.106 19.827H163L157.732 26.9347L163 35.9316H158.343L154.74 29.7078L152.09 31.8722V35.9305H147.942V11.37Z" fill="#EDEDED"/>
<path d="M73.7702 43.9072C73.7702 43.4589 73.6031 43.1677 73.2149 43.1677C72.8266 43.1677 72.2414 43.5632 71.8324 43.9794V47.124H70.557V39.5669L71.8335 39.4729V42.8467C72.3669 42.3985 72.9948 42.0557 73.6446 42.0557C74.5974 42.0557 75.0467 42.6496 75.0467 43.7432V47.1274H73.7702V43.9072Z" fill="#EDEDED"/>
<path d="M77.5168 45.3872C77.5168 45.8354 77.6838 46.1266 78.0721 46.1266C78.4384 46.1266 79.0249 45.7414 79.4431 45.3241V43.1379L79.4223 42.1899L80.6574 42.1486L80.7207 43.1998V45.7609L80.7518 47.1045L79.6216 47.1561L79.5272 46.3857C78.973 46.8649 78.3244 47.2501 77.6435 47.2501C76.6804 47.2501 76.2414 46.6562 76.2414 45.5522V43.1448L76.2103 42.1864L77.4557 42.1451L77.5179 43.1964L77.5168 45.3872Z" fill="#EDEDED"/>
<path d="M81.9845 43.4818L81.9534 42.1876L83.0836 42.1463L83.178 42.8548C83.7218 42.4065 84.3497 42.0523 84.988 42.0523C85.6573 42.0523 86.0767 42.3228 86.2645 42.8548C86.8094 42.3962 87.4373 42.0523 88.0755 42.0523C89.0594 42.0523 89.4984 42.6358 89.4984 43.7398V47.124H88.2219V43.9072C88.2219 43.4486 88.0444 43.1677 87.6677 43.1677C87.3221 43.1677 86.799 43.491 86.4004 43.8659V47.1251H85.1239V43.9072C85.1239 43.4486 84.9568 43.1677 84.5686 43.1677C84.2126 43.1677 83.6688 43.522 83.261 43.9175V47.1274H81.9845V43.4818Z" fill="#EDEDED"/>
<path d="M93.5583 47.1584L93.4638 46.4499C92.9408 46.8351 92.208 47.2524 91.6113 47.2524C90.9419 47.2524 90.45 46.6482 90.45 46.0028C90.45 44.9928 90.9419 44.5663 93.4004 44.0138V43.8051C93.4004 43.264 93.2023 43.107 92.7518 43.107C92.3958 43.107 91.276 43.3156 90.7115 43.4715L90.5237 42.4925C91.1723 42.2839 92.344 42.0546 93.0041 42.0546C94.0721 42.0546 94.6677 42.3985 94.6677 43.7306V46.0234L94.7311 47.1068L93.5583 47.1584ZM93.4016 44.7738C92.0617 45.1074 91.7587 45.3677 91.7587 45.7735C91.7587 46.0028 91.8947 46.2424 92.1354 46.2424C92.3762 46.2424 92.9834 45.9306 93.4027 45.597L93.4016 44.7738Z" fill="#EDEDED"/>
<path d="M99.1148 43.9072C99.1148 43.4589 98.9477 43.1677 98.5698 43.1677C98.1919 43.1677 97.5963 43.5632 97.1873 43.9794V47.124H95.912V43.5449L95.8809 42.1876L97.0111 42.1463L97.1055 42.9064C97.6597 42.4272 98.3198 42.0523 98.9996 42.0523C99.9523 42.0523 100.391 42.6461 100.391 43.7398V47.124H99.1148V43.9072Z" fill="#EDEDED"/>
<path d="M103.792 39.5669L105.069 39.4729V42.7837C105.54 42.3561 106.084 42.0546 106.629 42.0546C107.8 42.0546 108.418 42.6691 108.418 44.5125C108.418 46.5118 107.738 47.2512 106.283 47.2512C105.799 47.243 105.322 47.1369 104.881 46.9394L104.839 47.1263H103.793L103.792 39.5669ZM107.121 44.6111C107.121 43.4761 106.88 43.1528 106.273 43.1528C105.948 43.1528 105.478 43.4543 105.069 43.8613V46.0475C105.39 46.1372 105.72 46.1895 106.053 46.2034C106.816 46.2 107.119 45.7827 107.119 44.6065L107.121 44.6111Z" fill="#EDEDED"/>
<path d="M111.567 42.0557C112.906 42.0557 113.691 42.6805 113.691 43.9507C113.694 44.2222 113.677 44.4935 113.639 44.7624C113.178 44.7933 112.394 44.8036 110.529 44.8254C110.539 45.8881 110.842 46.1896 111.7 46.1896C112.327 46.1603 112.95 46.0802 113.563 45.9501L113.689 46.8981C112.962 47.1167 112.208 47.2359 111.449 47.2524C110.037 47.2524 109.242 46.6895 109.242 44.6902C109.244 42.99 110.165 42.0557 111.567 42.0557ZM112.404 44.0218C112.413 43.9354 112.417 43.8484 112.415 43.7616C112.415 43.2514 112.132 42.9499 111.567 42.9499C110.928 42.9499 110.614 43.3661 110.552 44.0642C111.232 44.055 111.982 44.0436 112.404 44.0218Z" fill="#EDEDED"/>
<path d="M115.083 47.1263V43.1907H114.36V42.3779L115.083 42.191V41.3369C115.083 40.1504 115.752 39.411 116.632 39.411C117.175 39.4262 117.715 39.4926 118.245 39.6093L118.109 40.6193C117.727 40.5401 117.338 40.4914 116.948 40.4737C116.592 40.4737 116.33 40.8279 116.33 41.3908V42.1715H118.109V43.1918H116.33V47.1274L115.083 47.1263Z" fill="#EDEDED"/>
<path d="M120.932 42.0557C122.429 42.0557 123.318 42.8055 123.318 44.6592C123.318 46.5439 122.428 47.2524 120.932 47.2524C119.435 47.2524 118.587 46.5026 118.587 44.6592C118.587 42.8158 119.446 42.0557 120.932 42.0557ZM120.942 46.2527C121.654 46.2527 122.03 45.9294 122.03 44.6592C122.03 43.4406 121.653 43.0542 120.942 43.0542C120.231 43.0542 119.874 43.4394 119.874 44.6592C119.875 45.9294 120.221 46.2516 120.942 46.2516V46.2527Z" fill="#EDEDED"/>
<path d="M127.556 43.3259C127.422 43.2998 127.285 43.286 127.148 43.2847C126.824 43.2847 126.227 43.7432 125.641 44.5136V47.1274H124.365V43.6687L124.334 42.1899L125.474 42.1486L125.579 43.295C126.082 42.6186 126.647 42.066 127.181 42.066C127.345 42.0689 127.51 42.0827 127.673 42.1073L127.556 43.3259Z" fill="#EDEDED"/>
<path d="M130.423 42.0557C131.763 42.0557 132.547 42.6805 132.547 43.9507C132.55 44.2222 132.533 44.4935 132.495 44.7624C132.034 44.7933 131.25 44.8036 129.385 44.8254C129.395 45.8881 129.698 46.1896 130.556 46.1896C131.183 46.1603 131.806 46.0802 132.419 45.9501L132.545 46.8981C131.818 47.1167 131.064 47.2359 130.305 47.2524C128.893 47.2524 128.098 46.6895 128.098 44.6902C128.1 42.99 129.021 42.0557 130.423 42.0557ZM131.26 44.0241C131.269 43.9377 131.273 43.8507 131.271 43.7639C131.271 43.2537 130.988 42.9522 130.423 42.9522C129.784 42.9522 129.47 43.3684 129.408 44.0665C130.089 44.0551 130.842 44.0436 131.26 44.0218V44.0241Z" fill="#EDEDED"/>
<path d="M140.197 45.8985L140.228 47.1068L139.108 47.148L139.003 46.4292C138.511 46.8981 137.947 47.2524 137.329 47.2524C136.241 47.2524 135.571 46.4923 135.571 44.7842C135.571 42.8995 136.273 42.0557 137.727 42.0557C138.131 42.0637 138.532 42.1234 138.92 42.2334V39.5669L140.197 39.4729V45.8985ZM137.706 46.1484C138.041 46.1484 138.513 45.8366 138.92 45.4296V43.2514C138.6 43.1558 138.27 43.0962 137.937 43.0737C137.152 43.0737 136.869 43.5426 136.869 44.6982C136.867 45.7414 137.151 46.1472 137.706 46.1472V46.1484Z" fill="#EDEDED"/>
<path d="M141.476 43.6068L141.434 42.191L142.649 42.1497L142.753 43.5036V47.1274H141.476V43.6068ZM141.455 40.0243H142.773V41.2429H141.455V40.0243Z" fill="#EDEDED"/>
<path d="M144.644 47.0953C144.183 46.8981 143.901 46.5852 143.901 46.169C143.901 45.8778 144.195 45.6176 144.843 45.3253C144.174 45.065 143.859 44.5962 143.859 43.8464C143.859 42.7631 144.801 42.0557 145.984 42.0557C146.622 42.0557 147.062 42.191 147.376 42.3893C147.574 42.3481 148.516 42.2128 148.903 42.1921L148.934 43.1402L147.93 43.1918C148.066 43.407 148.139 43.6561 148.139 43.9106C148.139 45.0043 147.291 45.5454 146.036 45.5454C145.954 45.5468 145.873 45.5363 145.795 45.5144C145.481 45.66 145.282 45.8377 145.282 45.942C145.282 46.2435 145.774 46.3685 147.082 46.4006C148.253 46.4419 148.912 46.8695 148.912 47.7648C148.912 48.9731 147.73 49.6804 145.95 49.6804C144.453 49.6804 143.628 49.1703 143.628 48.2956C143.628 47.7201 144.089 47.3555 144.644 47.0953ZM146.151 48.886C146.957 48.886 147.615 48.6051 147.615 48.0835C147.615 47.6559 147.29 47.4794 146.662 47.4587C146.291 47.4579 145.921 47.4334 145.553 47.3853C145.207 47.594 144.915 47.8852 144.915 48.1764C144.916 48.5742 145.344 48.886 146.151 48.886ZM146.852 43.7524C146.852 43.1689 146.559 42.8674 146.036 42.8674C145.481 42.8674 145.146 43.2526 145.146 43.9301C145.146 44.4506 145.429 44.7417 145.941 44.7417C146.538 44.7417 146.851 44.4196 146.851 43.7524H146.852Z" fill="#EDEDED"/>
<path d="M149.687 43.6068L149.645 42.191L150.859 42.1497L150.964 43.5036V47.1274H149.688L149.687 43.6068ZM149.666 40.0243H150.984V41.2429H149.666V40.0243Z" fill="#EDEDED"/>
<path d="M153.779 40.7844V42.1692H155.568V43.1792H153.779V45.3975C153.779 45.9913 153.884 46.1782 154.344 46.1782C154.733 46.1653 155.119 46.1131 155.496 46.0223L155.653 47.0116C155.11 47.1564 154.552 47.2368 153.99 47.2512C152.953 47.2512 152.524 46.7411 152.524 45.5637V43.1792H151.812V42.3767L152.607 42.2208L152.879 40.7832L153.779 40.7844Z" fill="#EDEDED"/>
<path d="M159.283 47.1584L159.189 46.4499C158.666 46.8351 157.933 47.2524 157.336 47.2524C156.667 47.2524 156.175 46.6482 156.175 46.0028C156.175 44.9928 156.667 44.5663 159.126 44.0138V43.8051C159.126 43.264 158.927 43.107 158.477 43.107C158.121 43.107 157.001 43.3156 156.437 43.4715L156.249 42.4925C156.897 42.2839 158.069 42.0546 158.729 42.0546C159.797 42.0546 160.393 42.3985 160.393 43.7306V46.0234L160.456 47.1068L159.283 47.1584ZM159.127 44.7738C157.787 45.1074 157.484 45.3677 157.484 45.7735C157.484 46.0028 157.62 46.2424 157.861 46.2424C158.101 46.2424 158.708 45.9306 159.128 45.597L159.127 44.7738Z" fill="#EDEDED"/>
<path d="M162.924 45.856L162.976 47.0953L161.815 47.1584L161.648 45.8881V39.5669L162.924 39.4729V45.856Z" fill="#EDEDED"/>
<path d="M30.6511 0C13.7201 0 -5.63571e-05 13.6559 -5.63571e-05 30.5C-0.00218261 34.3237 0.720518 38.1134 2.13014 41.6705L2.14051 41.6946C2.49612 42.5911 2.89244 43.4658 3.32946 44.3187C3.35711 44.3726 3.38246 44.4265 3.41011 44.4804L3.42163 44.4999L3.42854 44.5136C3.43891 44.5342 3.45158 44.5549 3.4631 44.5755C3.71349 45.0539 3.97578 45.5251 4.24998 45.989L4.27878 46.0383C9.61983 54.9952 19.4275 61 30.6511 61C47.5786 61 61.2965 47.3429 61.2965 30.5C61.2965 13.6571 47.5809 0 30.6511 0ZM30.6511 55.9673C26.8291 55.9713 23.0553 55.1191 19.6095 53.4739C19.7432 53.4395 19.8734 53.4085 20.0001 53.3592C20.1121 53.3356 20.2223 53.3038 20.3296 53.2641C20.4678 53.2297 20.598 53.1873 20.7282 53.1426C20.7777 53.1311 20.8204 53.1082 20.8699 53.0933C21.0151 53.044 21.1499 52.9867 21.2801 52.9293C21.3507 52.9095 21.4188 52.8814 21.4828 52.8456C21.5234 52.8363 21.5622 52.8209 21.598 52.7998C21.6268 52.7872 21.6549 52.773 21.6821 52.7574C21.8123 52.7001 21.9425 52.6359 22.0692 52.5705C22.196 52.5052 22.3296 52.4375 22.4529 52.3642C22.5761 52.2908 22.6833 52.2346 22.7904 52.1624C22.7985 52.1624 22.8054 52.1544 22.8215 52.1509C23.0128 52.0294 23.2086 51.8918 23.3976 51.7543C23.5865 51.6167 23.7616 51.4757 23.9345 51.3267C24.1734 51.131 24.4 50.9208 24.613 50.6973C24.7547 50.5448 24.8999 50.3958 25.0312 50.2387C25.0312 50.2238 25.0508 50.2158 25.0577 50.2009C25.1799 50.0519 25.3031 49.8994 25.4183 49.7423C25.4529 49.693 25.499 49.6357 25.5335 49.5784C25.5592 49.5507 25.5813 49.5199 25.5992 49.4867C25.7029 49.3423 25.7985 49.2012 25.8861 49.0488C26.0052 48.8622 26.1125 48.6685 26.2075 48.4687C26.2651 48.3541 26.3227 48.2394 26.3757 48.1248C26.4423 47.9895 26.5012 47.8505 26.552 47.7086C26.6 47.6228 26.6386 47.5321 26.6672 47.4381C26.7478 47.2432 26.8204 47.046 26.8861 46.8362C26.9206 46.7216 26.9587 46.615 26.9852 46.5003C27.0197 46.3673 27.0577 46.2252 27.0923 46.0807C27.1269 45.9363 27.158 45.7838 27.1879 45.6314C27.2075 45.5167 27.2306 45.3952 27.2536 45.2725C27.2882 45.0673 27.3112 44.8529 27.3296 44.6363C27.3527 44.4528 27.3677 44.2591 27.3792 44.0631V44.0287C27.3942 43.7994 27.4218 43.5701 27.4218 43.3351V39.051L31.0843 34.243L35.9161 42.4249L34.6246 43.1758C34.5503 43.2196 34.4924 43.2864 34.4599 43.3661C34.4473 43.3891 34.4369 43.4133 34.4288 43.4383V43.4463C34.405 43.5375 34.4152 43.6343 34.4576 43.7186C34.4999 43.8029 34.5715 43.8691 34.6592 43.9049L34.7133 43.9312L40.9461 46.6585C41.0061 46.6854 41.0717 46.6977 41.1374 46.6943C41.2032 46.691 41.2672 46.6721 41.3241 46.6393C41.3811 46.6065 41.4294 46.5607 41.465 46.5056C41.5006 46.4505 41.5226 46.3878 41.5291 46.3226L42.1339 39.9486L42.1719 39.521V39.513C42.1822 39.4189 42.1585 39.3242 42.1051 39.2459C42.0517 39.1676 41.9721 39.1107 41.8804 39.0854C41.8265 39.0657 41.7688 39.0585 41.7117 39.0645C41.6546 39.0704 41.5996 39.0894 41.5509 39.1198L40.2479 39.8821L34.3723 29.9279L39.6131 23.0427L40.8044 23.9426C40.8723 23.9949 40.9558 24.0231 41.0417 24.0228C41.0686 24.0248 41.0955 24.0248 41.1224 24.0228V24.016C41.2179 24.0047 41.3059 23.9589 41.3696 23.8872C41.4334 23.8155 41.4684 23.723 41.468 23.6273V23.5666L41.6293 16.7959C41.631 16.7303 41.617 16.6653 41.5886 16.6061C41.5601 16.5469 41.5179 16.4953 41.4655 16.4555C41.4132 16.4157 41.352 16.3888 41.2872 16.377C41.2223 16.3652 41.1556 16.3689 41.0924 16.3878L34.9426 18.2564L34.529 18.386C34.4376 18.4135 34.3589 18.4721 34.3065 18.5515C34.2541 18.6309 34.2313 18.7261 34.2421 18.8205C34.2459 18.8776 34.2624 18.9333 34.2902 18.9834C34.3181 19.0335 34.3568 19.0769 34.4034 19.1105L35.5993 20.023L27.4195 30.7625V17.5067H28.9172C29.001 17.5057 29.082 17.4771 29.1476 17.4253C29.1704 17.4101 29.1924 17.3937 29.2133 17.376V17.368C29.2816 17.3014 29.3228 17.2121 29.3292 17.1172C29.3355 17.0222 29.3066 16.9283 29.2479 16.8532L29.2133 16.8039L25.2305 11.3081C25.192 11.2551 25.1413 11.2119 25.0828 11.1821C25.0242 11.1523 24.9593 11.1368 24.8936 11.1368C24.8278 11.1368 24.7629 11.1523 24.7044 11.1821C24.6458 11.2119 24.5951 11.2551 24.5566 11.3081L20.7858 16.4967L20.5324 16.8475V16.8521C20.4762 16.9284 20.4491 17.0221 20.4561 17.1164C20.4631 17.2108 20.5036 17.2995 20.5704 17.3668C20.6059 17.4113 20.6514 17.4469 20.7032 17.4708C20.755 17.4947 20.8117 17.5062 20.8688 17.5044H22.378V43.3214C22.3757 43.9733 22.279 44.6216 22.0911 45.2462C22.0085 45.5265 21.9025 45.7995 21.7743 46.0624C21.5835 46.446 21.3438 46.8036 21.0612 47.1263C20.4094 47.821 19.5689 48.3125 18.6418 48.5409C18.5611 48.5719 18.4805 48.5833 18.4045 48.6063C16.1245 49.121 13.1245 48.4503 10.6532 46.1128C10.3063 45.7812 9.9789 45.4298 9.67283 45.0604C9.66912 45.0531 9.66403 45.0465 9.65785 45.041C6.6591 40.7796 5.0528 35.7022 5.05758 30.5C5.05758 16.4589 16.5369 5.0327 30.6511 5.0327C44.7652 5.0327 56.2411 16.4589 56.2411 30.5C56.2411 44.5411 44.7629 55.9673 30.6511 55.9673Z" fill="#EDEDED"/>
</svg>
