<svg width="13" height="13" viewBox="0 0 13 13" fill="none" xmlns="http://www.w3.org/2000/svg">
<path d="M10.2191 7.5854C10.2191 8.26364 10.2191 8.94189 10.2191 9.62013C10.2191 9.90952 10.2191 10.1989 10.2191 10.4883C10.2191 10.6557 10.2276 10.8272 10.2054 10.9935C10.213 10.9387 10.2206 10.884 10.2282 10.8292C10.2104 10.9492 10.1783 11.0653 10.1316 11.1774C10.1527 11.127 10.1738 11.0767 10.1949 11.0264C10.1478 11.1353 10.0884 11.2371 10.0167 11.3317C10.0498 11.2884 10.083 11.245 10.1161 11.2016C10.0437 11.2947 9.96121 11.378 9.86884 11.4514C9.91261 11.4175 9.95638 11.3836 10.0001 11.3496C9.90125 11.4262 9.79423 11.4893 9.67923 11.5387C9.73217 11.5167 9.7851 11.4947 9.83804 11.4726C9.71958 11.5217 9.59663 11.5546 9.4695 11.5715C9.52639 11.5641 9.58327 11.5568 9.64017 11.5495C9.48978 11.5674 9.33548 11.5606 9.18424 11.5606C8.90595 11.5606 8.62768 11.5606 8.34939 11.5606C7.48249 11.5606 6.61561 11.5606 5.74872 11.5606C4.88308 11.5606 4.01743 11.5606 3.15179 11.5606C2.87505 11.5606 2.59833 11.5606 2.3216 11.5606C2.16576 11.5606 2.00693 11.5675 1.85217 11.5469C1.9071 11.5545 1.96202 11.5621 2.01693 11.5697C1.89655 11.552 1.78013 11.5199 1.66773 11.4734C1.7182 11.4945 1.76866 11.5155 1.81911 11.5365C1.70986 11.4896 1.6078 11.4303 1.51289 11.3588C1.55639 11.3919 1.5999 11.4249 1.6434 11.458C1.55007 11.3857 1.46655 11.3035 1.39284 11.2114C1.42688 11.2551 1.46093 11.2987 1.49497 11.3423C1.41817 11.2437 1.35487 11.137 1.30532 11.0224C1.32742 11.0751 1.3495 11.1279 1.3716 11.1807C1.32244 11.0626 1.28944 10.94 1.27248 10.8133C1.27981 10.87 1.28716 10.9267 1.29448 10.9834C1.27656 10.8335 1.28336 10.6796 1.28336 10.5288C1.28336 10.2514 1.28336 9.9739 1.28336 9.69643C1.28336 8.83208 1.28336 7.96775 1.28336 7.10341C1.28336 6.2403 1.28336 5.37721 1.28336 4.5141C1.28336 4.23818 1.28336 3.96227 1.28336 3.68635C1.28336 3.53097 1.27642 3.37261 1.29705 3.21831C1.28945 3.27308 1.28185 3.32783 1.27424 3.3826C1.29199 3.26257 1.32412 3.14648 1.37077 3.03443C1.34967 3.08473 1.32858 3.13505 1.30748 3.18536C1.35456 3.07643 1.41402 2.97465 1.48573 2.88004C1.45259 2.92341 1.41943 2.96679 1.38628 3.01016C1.45875 2.91711 1.54119 2.83381 1.63356 2.76034C1.58979 2.79428 1.54603 2.82823 1.50227 2.86217C1.60117 2.78561 1.70819 2.72249 1.82319 2.67308C1.77025 2.69511 1.71732 2.71713 1.66438 2.73916C1.78284 2.69015 1.90579 2.65724 2.03292 2.64034C1.97603 2.64765 1.91913 2.65497 1.86225 2.66227C2.10932 2.63292 2.36719 2.65118 2.6152 2.65118C3.06385 2.65118 3.51251 2.65118 3.96116 2.65118C4.38455 2.65118 4.80793 2.65118 5.23132 2.65118C5.58082 2.65118 5.87531 2.36618 5.87763 2.01599C5.87994 1.66927 5.59009 1.37158 5.24056 1.37158C4.55848 1.37158 3.87639 1.37158 3.1943 1.37158C2.84652 1.37158 2.49875 1.37158 2.15098 1.37158C1.97345 1.37158 1.80038 1.3855 1.62401 1.41644C1.42028 1.45218 1.21872 1.53678 1.03858 1.63514C0.861482 1.73182 0.695593 1.8643 0.557746 2.01108C0.183981 2.40912 0 2.92608 0 3.46711C0 3.66124 0 3.85536 0 4.04951C0 4.83842 0 5.62733 0 6.41626C0 7.32559 0 8.23491 0 9.14424C0 9.67744 0 10.2106 0 10.7438C0 10.8852 0.0168655 11.0228 0.0356985 11.1636C0.0632992 11.37 0.145987 11.5703 0.238014 11.7552C0.32793 11.9357 0.459946 12.1028 0.601243 12.2456C0.99414 12.6425 1.54022 12.8402 2.09332 12.8402C2.62809 12.8402 3.16286 12.8402 3.69763 12.8402C4.60964 12.8402 5.52164 12.8402 6.43366 12.8402C7.22491 12.8402 8.01614 12.8402 8.80738 12.8402C9.00209 12.8402 9.19679 12.8402 9.39151 12.8402C9.4651 12.8402 9.53812 12.8391 9.61156 12.8314C9.73885 12.8181 9.86689 12.8025 9.99092 12.77C10.119 12.7364 10.2434 12.6807 10.3634 12.6272C10.5488 12.5446 10.7172 12.4144 10.8659 12.2792C11.1618 12.0102 11.3819 11.616 11.4567 11.2243C11.4898 11.0508 11.5025 10.8804 11.5025 10.7055C11.5025 10.3605 11.5025 10.0155 11.5025 9.67045C11.5025 8.97876 11.5025 8.28707 11.5025 7.59537C11.5025 7.59511 11.5025 7.59487 11.5025 7.59461C11.5025 7.24614 11.2166 6.95252 10.8654 6.95021C10.5176 6.9479 10.2191 7.23692 10.2191 7.5854Z" fill="white"/>
<path d="M7.13072 1.2796C7.66261 1.28009 8.19446 1.28057 8.72635 1.28107C9.61925 1.28189 10.5122 1.2827 11.4051 1.28353C11.6806 1.28378 11.9561 1.28402 12.2317 1.28428C12.5812 1.28459 12.8757 0.999034 12.878 0.649084C12.8803 0.302118 12.5904 0.0049896 12.2409 0.00467688C11.709 0.00419358 11.1772 0.00371028 10.6453 0.00321276C9.75239 0.00238831 8.85949 0.00156387 7.96658 0.000753632C7.69105 0.000497769 7.41551 0.00025612 7.13997 2.56608e-07C6.79047 -0.000312466 6.49599 0.285246 6.49367 0.635196C6.49136 0.982147 6.78121 1.27928 7.13072 1.2796Z" fill="white"/>
<path d="M12.8733 5.73041C12.8738 5.20009 12.8743 4.66978 12.8748 4.13946C12.8757 3.24918 12.8765 2.35889 12.8773 1.4686C12.8776 1.19387 12.8778 0.919147 12.8781 0.64442C12.8784 0.295948 12.592 0.00233065 12.241 1.36665e-05C11.893 -0.00228911 11.595 0.286723 11.5947 0.635209C11.5942 1.16553 11.5937 1.69584 11.5932 2.22616C11.5924 3.11643 11.5916 4.00672 11.5907 4.89702C11.5905 5.17174 11.5902 5.44647 11.59 5.7212C11.5896 6.06967 11.876 6.36329 12.227 6.3656C12.575 6.36791 12.873 6.07889 12.8733 5.73041Z" fill="white"/>
<path d="M5.47893 8.27546C5.69841 8.05683 5.91787 7.83819 6.13735 7.61957C6.6712 7.08778 7.20506 6.55599 7.73891 6.02419C8.40028 5.36535 9.06166 4.70653 9.72304 4.04771C10.3251 3.44798 10.9271 2.84825 11.5292 2.24852C11.8851 1.89402 12.2409 1.53953 12.5968 1.18503C12.6287 1.15327 12.6606 1.12153 12.6924 1.08977C12.9394 0.843719 12.9352 0.428864 12.6876 0.185026C12.4379 -0.0607875 12.0276 -0.0566511 11.7802 0.189873C11.5607 0.408495 11.3412 0.62713 11.1217 0.845751C10.5879 1.37755 10.054 1.90933 9.52018 2.44113C8.85879 3.09997 8.19743 3.75879 7.53604 4.41761C6.93399 5.01734 6.33194 5.61707 5.72988 6.2168C5.37401 6.5713 5.01814 6.92579 4.66225 7.28031C4.63037 7.31205 4.59851 7.3438 4.56663 7.37555C4.31962 7.6216 4.32383 8.03646 4.57149 8.28029C4.82118 8.52612 5.23145 8.52199 5.47893 8.27546Z" fill="white"/>
</svg>
