<svg width="141" height="119" viewBox="0 0 141 119" fill="none" xmlns="http://www.w3.org/2000/svg">
<path d="M2.73113 20.2954H16.0134V16.4537H7.34716V0.431588H2.73113V20.2954Z" fill="white"/>
<path d="M17.823 10.4082C17.823 15.7687 21.8435 20.6528 28.6335 20.6528C35.5724 20.6528 39.8906 15.4411 39.8906 9.99124C39.8906 4.63069 35.7511 0.0742188 28.9015 0.0742188C21.6945 0.0742188 17.823 5.28587 17.823 10.4082ZM22.6178 10.3188C22.6178 7.01316 24.7918 3.94573 28.8717 3.94573C32.9815 3.94573 35.0661 7.01316 35.0661 10.2295C35.0661 13.5947 32.7432 16.7813 28.7228 16.7813C24.5833 16.7813 22.6178 13.3565 22.6178 10.3188Z" fill="white"/>
<path d="M48.7858 20.2954H53.4018V4.27332H59.5367V0.431588H42.5318V4.27332H48.7858V20.2954Z" fill="white"/>
<path d="M63.7795 20.2954H68.3956V13.2969H71.0163L75.4536 20.2954H80.9333L75.543 12.0461C77.5383 10.9442 78.6104 9.03825 78.6104 6.68557C78.6104 3.14165 76.2875 0.431588 71.1652 0.431588H63.7795V20.2954ZM68.3956 9.48497V4.27332H70.4504C73.0116 4.27332 73.8157 5.28587 73.8157 6.80469C73.8157 8.32351 73.1009 9.48497 70.0335 9.48497H68.3956Z" fill="white"/>
<path d="M85.2625 20.2954H98.6341V16.4537H89.8785V12.195H96.4899V8.29373H89.8785V4.27332H98.2469V0.431588H85.2625V20.2954Z" fill="white"/>
<path d="M103.837 20.2954H108.453V11.8377H109.079L115.392 20.2954H121.199L112.861 9.69343L120.753 0.431588H115.035L109.079 7.93636H108.453V0.431588H103.837V20.2954Z" fill="white"/>
<path d="M2.73113 44.8646H9.25313C16.3112 44.8646 21.1953 41.2909 21.1953 34.62C21.1953 27.5619 15.7156 25.0008 10.3848 25.0008H2.73113V44.8646ZM7.34716 41.0229V28.8425H9.96787C14.3457 28.8425 16.4005 31.2845 16.4005 34.7391C16.4005 38.2533 14.2861 41.0229 8.95532 41.0229H7.34716Z" fill="white"/>
<path d="M25.7054 44.8646H30.3215V25.0008H25.7054V44.8646Z" fill="white"/>
<path d="M34.719 35.305C34.719 41.3505 39.5435 45.222 45.8868 45.222C48.8947 45.222 53.5107 44.3583 53.5107 44.3583V33.6372H45.1423V37.5087H48.984V40.9931C48.984 40.9931 47.4652 41.2016 46.1846 41.2016C42.6407 41.2016 39.3946 39.1765 39.3946 35.0667C39.3946 31.4334 41.8664 28.6638 46.2144 28.6638C49.2521 28.6638 51.5154 29.9444 51.5154 29.9444L53.2129 26.0729C53.2129 26.0729 50.5326 24.6434 46.3633 24.6434C39.0075 24.6434 34.719 29.6466 34.719 35.305Z" fill="white"/>
<path d="M59.2566 44.8646H63.8726V25.0008H59.2566V44.8646Z" fill="white"/>
<path d="M74.9709 44.8646H79.5869V28.8425H85.7217V25.0008H68.7169V28.8425H74.9709V44.8646Z" fill="white"/>
<path d="M85.9739 44.8646H90.5304L91.7812 41.2909H99.1966L100.447 44.8646H105.123L97.7374 24.8519H93.3596L85.9739 44.8646ZM95.474 30.6889L97.8565 37.4194H93.1214L95.474 30.6889Z" fill="white"/>
<path d="M24.2141 69.4338H37.5857V65.5921H28.8301V61.3334H35.4414V57.4321H28.8301V53.4117H37.1985V49.57H24.2141V69.4338Z" fill="white"/>
<path d="M47.5238 69.5827H51.9016L58.8406 49.57H54.1054L49.7574 62.5247L45.469 49.57H40.5849L47.5238 69.5827Z" fill="white"/>
<path d="M60.4259 59.5466C60.4259 64.9071 64.4464 69.7912 71.2364 69.7912C78.1753 69.7912 82.4935 64.5795 82.4935 59.1296C82.4935 53.7691 78.354 49.2126 71.5044 49.2126C64.2974 49.2126 60.4259 54.4243 60.4259 59.5466ZM65.2207 59.4572C65.2207 56.1516 67.3947 53.0841 71.4746 53.0841C75.5844 53.0841 77.669 56.1516 77.669 59.3679C77.669 62.7331 75.3461 65.9197 71.3257 65.9197C67.1862 65.9197 65.2207 62.4949 65.2207 59.4572Z" fill="white"/>
<path d="M87.1598 69.4338H100.442V65.5921H91.7759V49.57H87.1598V69.4338Z" fill="white"/>
<path d="M103.375 61.8397C103.375 67.6172 107.217 69.7912 111.892 69.7912C116.628 69.7912 120.469 66.8727 120.469 61.4228V49.57H115.883V61.6014C115.883 64.3115 114.394 65.9197 111.922 65.9197C109.659 65.9197 107.991 64.7582 107.991 61.4823V49.57H103.375V61.8397Z" fill="white"/>
<path d="M130.089 69.4338H134.705V53.4117H140.84V49.57H123.835V53.4117H130.089V69.4338Z" fill="white"/>
<path d="M2.73113 94.003H7.34716V74.1392H2.73113V94.003Z" fill="white"/>
<path d="M12.6381 84.1158C12.6381 89.4763 16.6586 94.3604 23.4486 94.3604C30.3875 94.3604 34.7058 89.1487 34.7058 83.6988C34.7058 78.3383 30.5662 73.7818 23.7166 73.7818C16.5097 73.7818 12.6381 78.9935 12.6381 84.1158ZM17.4329 84.0264C17.4329 80.7208 19.6069 77.6533 23.6868 77.6533C27.7966 77.6533 29.8813 80.7207 29.8813 83.9371C29.8813 87.3023 27.5583 90.4889 23.5379 90.4889C19.3984 90.4889 17.4329 87.0641 17.4329 84.0264Z" fill="white"/>
<path d="M39.9677 94.003H44.4943V81.2866L53.0117 94.003H57.7468V74.1392H53.2201V86.8556L44.6432 74.1392H39.9677V94.003Z" fill="white"/>
<path d="M85.58 94.003H90.1961V87.0045H92.8168L97.2542 94.003H102.734L97.3435 85.7537C99.3388 84.6518 100.411 82.7458 100.411 80.3932C100.411 76.8492 98.088 74.1392 92.9657 74.1392H85.58V94.003ZM90.1961 83.1926V77.9809H92.251C94.8121 77.9809 95.6162 78.9935 95.6162 80.5123C95.6162 82.0311 94.9015 83.1926 91.834 83.1926H90.1961Z" fill="white"/>
<path d="M110.964 94.003H115.58V85.8728L122.757 74.1392H117.546L113.257 81.4355L109.207 74.1392H103.787L110.964 85.9026V94.003Z" fill="white"/>
<path d="M0.527344 118.572H5.08381L6.33461 114.999H13.75L15.0008 118.572H19.6764L12.2908 98.5595H7.91299L0.527344 118.572ZM10.0274 104.397L12.4099 111.127H7.67475L10.0274 104.397Z" fill="white"/>
<path d="M20.6452 109.013C20.6452 115.058 25.4697 118.93 31.8131 118.93C34.8209 118.93 39.437 118.066 39.437 118.066V107.345H31.0685V111.216H34.9103V114.701C34.9103 114.701 33.3914 114.909 32.1109 114.909C28.5669 114.909 25.3208 112.884 25.3208 108.774C25.3208 105.141 27.7926 102.371 32.1406 102.371C35.1783 102.371 37.4416 103.652 37.4416 103.652L39.1391 99.7805C39.1391 99.7805 36.4589 98.351 32.2895 98.351C24.9337 98.351 20.6452 103.354 20.6452 109.013Z" fill="white"/>
<path d="M45.1828 118.572H58.5544V114.73H49.7988V110.472H56.4102V106.571H49.7988V102.55H58.1672V98.7084H45.1828V118.572Z" fill="white"/>
<path d="M63.8894 118.572H68.4161V105.856L76.9335 118.572H81.6686V98.7084H77.1419V111.425L68.565 98.7084H63.8894V118.572Z" fill="white"/>
<path d="M85.6782 109.072C85.6782 115.564 90.7112 118.93 96.4887 118.93C101.968 118.93 104.351 116.517 104.351 116.517L102.475 113.182C102.475 113.182 100.39 114.909 96.7567 114.909C93.451 114.909 90.324 112.884 90.324 108.655C90.324 104.724 93.0043 102.371 96.8758 102.371C100.479 102.371 102.326 103.801 102.326 103.801L104.023 99.9592C104.023 99.9592 101.7 98.351 96.995 98.351C89.9667 98.351 85.6782 103.056 85.6782 109.072Z" fill="white"/>
<path d="M2.72709 49.57H7.34312V56.5685H9.96383L14.4012 49.57H19.8809L14.4905 57.8193C16.4858 58.9211 17.558 60.8271 17.558 63.1798C17.558 66.7237 15.235 69.4338 10.1127 69.4338H2.72709V49.57ZM7.34312 60.3804V65.5921H9.398C11.9592 65.5921 12.7632 64.5795 12.7632 63.0607C12.7632 61.5419 12.0485 60.3804 8.98107 60.3804H7.34312Z" fill="white"/>
<path d="M62.0595 73.9905H66.616L67.8668 77.5642H75.2822L76.533 73.9905H81.2086L73.8229 94.0032H69.4451L62.0595 73.9905ZM71.5596 88.1662L73.9421 81.4357H69.2069L71.5596 88.1662Z" fill="white"/>
<path d="M109.45 25.0008H122.732V28.8425H114.066V44.8646H109.45V25.0008Z" fill="white"/>
<path d="M113.107 98.7084H117.723V106.839L124.9 118.572H119.689L115.4 111.276L111.35 118.572H105.93L113.107 106.809V98.7084Z" fill="white"/>
</svg>
