<svg width="85" height="107" viewBox="0 0 85 107" fill="none" xmlns="http://www.w3.org/2000/svg">
<path d="M20.95 6.71484C8.76286 14.1147 0.621094 27.5126 0.621094 42.8121C0.621094 57.7544 9.29833 76.5637 25.1407 74.8226C32.0125 73.8754 36.738 70.2569 38.1246 64.7049C38.7065 62.8366 38.6764 59.7889 38.651 57.2233V57.2231C38.6414 56.2515 38.6325 55.349 38.6578 54.606L43.7393 47.9023L50.451 59.3079L48.6606 60.3556C48.5345 60.4459 48.4409 60.5754 48.3898 60.7219C48.3063 61.0251 48.5022 61.3164 48.7884 61.4135L57.4369 65.2143C57.6022 65.2892 57.8032 65.279 57.9599 65.187C58.1183 65.0967 58.2273 64.9281 58.2444 64.7458L59.0842 55.853L59.137 55.2567C59.2051 54.807 58.6532 54.4526 58.2733 54.698L56.466 55.761L48.3029 41.8852L55.5852 32.2854L57.2393 33.5392C57.362 33.6397 57.5238 33.6636 57.6788 33.6517V33.6414C57.9854 33.6125 58.1916 33.3109 58.1575 33.0145L58.3807 23.5732C58.3858 23.3909 58.2989 23.2103 58.1524 23.0996C58.0076 22.9871 57.81 22.9513 57.6345 23.0042L49.1035 25.6107L49.0524 25.6251L49.0286 25.6319C48.5206 25.7748 47.9068 25.9476 48.1973 26.6243C48.1684 26.682 49.2179 27.4658 49.7375 27.8537L49.7378 27.854C49.8929 27.9698 50.0007 28.0503 50.0183 28.0656L38.6646 43.0402V24.5613H40.7377C40.8996 24.5664 41.0409 24.4829 41.1585 24.3807V24.3739C41.385 24.1626 41.3561 23.8066 41.1585 23.5868L35.6239 15.9206C35.5166 15.7724 35.3377 15.6804 35.1554 15.6821C34.9732 15.6804 34.7943 15.7724 34.6887 15.9206L29.4641 23.1456L29.1132 23.6345V23.6447C28.8338 23.9957 29.137 24.5732 29.5799 24.5544H31.6735V60.5532C31.6616 61.8667 31.4044 63.1921 30.8286 64.3761C29.953 66.2381 28.1337 67.4937 26.1491 67.9196C21.3105 68.958 16.8855 66.768 13.9214 62.8447C9.3804 56.5959 7.51755 49.6808 7.51756 42.8121C7.51756 30.0462 14.2933 18.863 24.4447 12.6625L20.95 6.71484Z" fill="white"/>
<path d="M63.7091 79.4906L60.2144 73.543C55.0805 76.4553 49.1448 78.1182 42.8207 78.1182V78.1089C39.3724 78.1089 35.6088 77.5932 32.1476 76.4762C28.3573 78.2871 23.9906 78.9498 19.7285 78.1695C27.2215 83.0442 34.939 85.0146 42.8207 85.0146C50.42 85.0146 57.5501 83.006 63.7091 79.4906Z" fill="#6AB946"/>
<path d="M78.0308 45.4023C77.2556 56.0941 71.719 65.4656 63.5312 71.4062L67.0389 77.376C77.245 70.2114 84.1333 58.6411 84.9411 45.4276L78.0308 45.4023Z" fill="#FA501E"/>
<path d="M78.0984 41.4635C77.715 31.2737 73.0129 22.1891 65.7695 15.9871L69.9576 10.4961C78.8521 17.9725 84.616 29.0532 84.9998 41.4887L78.0984 41.4635Z" fill="#FCB92C"/>
<path d="M42.8206 0.613281C51.7393 0.613281 60.0118 3.38 66.8266 8.10198L62.6385 13.5928C56.9885 9.75341 50.1666 7.50975 42.8206 7.50975C37.4962 7.50975 32.447 8.68848 27.9198 10.7992L24.4121 4.82938C29.9753 2.12825 36.221 0.613281 42.8206 0.613281Z" fill="#0F7EE6"/>
</svg>
