<svg xmlns="http://www.w3.org/2000/svg" viewBox="0 0 554.45 554.78">
  <defs>
    <style>
      .cls-1 {
        fill: #2b519d;
      }

      .cls-2 {
        fill: #eecd2e;
      }

      .cls-3 {
        fill: #b9ce18;
      }

      .cls-4 {
        fill: #5cbecf;
      }

      .cls-5 {
        fill: #e8434a;
      }
    </style>
  </defs>
  <title>lotrek_short_c</title>
  <g id="Livello_2" data-name="Livello 2">
    <g id="Livello_1-2" data-name="Livello 1">
      <g>
        <path class="cls-1" d="M404.46,523.94a277.41,277.41,0,0,1-253.6.33,250.65,250.65,0,0,1-22.51-13.08q-1.66-1-3.32-2.14a140.47,140.47,0,0,0,28.17,2.8,131.67,131.67,0,0,0,26-2.6l.65-.07,2.47-.58c1.63-.39,3.19-.85,4.75-1.3,1.17-.32,2.34-.65,3.51-1a40.84,40.84,0,0,0,4-1.24c.58-.13,1.82-.59,1.82-.59,1.63-.58,3.12-1.17,4.62-1.82s2.67-1.11,4.1-1.69l1-.52c1-.46,2-1,3.06-1.5a228.32,228.32,0,0,0,68.31,10.34,230.64,230.64,0,0,0,104.36-24.85Z"/>
        <path class="cls-2" d="M405.4,31.36,382.56,70.85A229.64,229.64,0,0,0,277.42,45.54a226.11,226.11,0,0,0-41.18,3.71c-6.25,1.11-12.36,2.47-18.41,4-1.56.45-3.12.85-4.62,1.37s-3.06.91-4.62,1.37h-.07c-2.54.78-5.14,1.63-7.68,2.54-3.58,1.3-7.09,2.6-10.61,4-5.33,2.14-10.6,4.49-15.74,7.09L151.86,30.12c6.77-3.51,13.79-6.7,20.88-9.57,3.64-1.49,7.29-2.86,11-4.23,5.27-1.89,10.61-3.58,16-5.2l2.15-.58c4.94-1.37,9.89-2.67,14.83-3.77.39-.07.72-.2,1.11-.26C223.88,5.2,230,4,236.24,3.06A277.33,277.33,0,0,1,405.4,31.36Z"/>
        <path class="cls-3" d="M217.83,53.35c-1.56.39-3.12.85-4.62,1.3,1.5-.52,3.06-.91,4.62-1.37Z"/>
        <path class="cls-3" d="M381.63,359.46l-.35,3.88-5.48,57.94a3.77,3.77,0,0,1-5.27,3.08l-56.42-24.79-.49-.24a3.54,3.54,0,0,1-2.11-4.2l0-.07a3.87,3.87,0,0,1,.28-.66,3.57,3.57,0,0,1,1.49-1.73l11.69-6.83-43.72-74.41-33.15,43.72v39c0,2.15-.24,4.23-.38,6.31v.31c-.1,1.77-.24,3.54-.45,5.2-.17,2-.38,3.92-.69,5.79-.21,1.11-.42,2.22-.59,3.26-.28,1.39-.52,2.74-.87,4.09s-.66,2.57-1,3.78c-.24,1-.59,2.08-.9,3.05-.59,1.91-1.25,3.71-1.94,5.48a15.17,15.17,0,0,1-1,2.46,36.45,36.45,0,0,1-1.63,3.78c-.45,1-1,2.08-1.49,3.12-.9,1.84-1.87,3.57-2.91,5.27-.83,1.39-1.7,2.67-2.6,4a4.08,4.08,0,0,1-.59.83c-.31.52-.73,1-1,1.49-1,1.42-2.15,2.81-3.26,4.16-.07.14-.21.21-.24.35-1.18,1.42-2.5,2.77-3.78,4.16a69.12,69.12,0,0,1-6.14,5.72c-1.56,1.35-3.19,2.67-4.85,3.88s-3.47,2.5-5.2,3.61c-.14,0-.21.1-.28.1-1,.66-2,1.25-3.05,1.84s-2.29,1.25-3.47,1.87-2.32,1.18-3.5,1.7a7.46,7.46,0,0,1-.76.38,3.61,3.61,0,0,1-1,.42,8.52,8.52,0,0,1-1.84.76c-1.18.52-2.39,1-3.71,1.49-.45.14-.83.35-1.28.45-1.18.42-2.36.8-3.61,1.11a21.32,21.32,0,0,1-3,.87c-1.28.45-2.6.76-4,1.11H177c-.14,0-.28.07-.41.07-1.42.31-2.84.62-4.33.83a99.86,99.86,0,0,1-19,1.77,104,104,0,0,1-11.72-.66C109.19,485.15,74,468.16,48,433.18c-.21-.28-.38-.45-.59-.73a3.45,3.45,0,0,1-.38-.59,267,267,0,0,1-16-27v-.07a1.18,1.18,0,0,1-.17-.28c-2.43-4.68-4.75-9.5-6.83-14.32-1.63-3.71-3.26-7.39-4.75-11.24S16.4,371.35,15,367.54a267.59,267.59,0,0,1-12-49c-.76-5.13-1.42-10.37-1.87-15.64-.38-4.16-.66-8.32-.9-12.48S0,281.82,0,277.49c0-3.19.07-6.38.21-9.5,0-1.25.07-2.43.14-3.57,0-.45,0-.87,0-1.25.07-1.77.21-3.5.28-5.27s.24-3.33.45-5c.14-2,.31-4.06.59-6.07.45-4,1-8.08,1.56-12,.31-2.15.73-4.3,1.11-6.45.31-1.8.66-3.57,1-5.34.73-3.81,1.56-7.59,2.46-11.37a2.32,2.32,0,0,0,.14-.73c.52-1.73,1-3.57,1.42-5.34a284.68,284.68,0,0,1,11.44-33.81c1.53-3.47,3-7,4.58-10.37.83-1.73,1.7-3.5,2.53-5.27,2.46-5.27,5.2-10.4,8.15-15.4,1-1.77,1.94-3.4,2.91-5.1q4.47-7.39,9.36-14.63l3.33-4.68c3.29-4.75,6.83-9.29,10.54-13.8A267.6,267.6,0,0,1,94.21,69.3c5.79-5.17,11.79-10,18-14.53,5.51-4.16,11.2-8,17.06-11.76l22.68,39.6c-.9.52-1.87,1.18-2.77,1.77q-3.9,2.55-7.7,5.41c-2.39,1.66-4.75,3.5-7.07,5.27a3.33,3.33,0,0,1-.42.31c-2.39,1.94-4.78,4-7.21,6s-4.68,4.09-7,6.17-4.47,4.3-6.69,6.48-4.37,4.51-6.45,6.8q-6.35,6.81-12.1,14.25c-1.94,2.46-3.75,4.92-5.58,7.45s-3.57,5.17-5.34,7.77-3.36,5.2-5,7.91c-3.12,5.17-6.07,10.51-8.74,15.88-.45,1-1,1.91-1.42,2.88-1,2.08-1.94,4.16-2.91,6.31-2.57,5.72-4.89,11.58-7,17.58.07,0,0,0,0,.1-1,2.95-2,6-2.91,9a224.82,224.82,0,0,0-6.38,26.49c-.21,1.11-.42,2.29-.59,3.36-.35,2-.66,4.06-.94,6.07-.1,1.11-.24,2.22-.38,3.26-.38,2.77-.66,5.58-.9,8.46-.21,2.25-.31,4.54-.45,6.83,0,.31-.07.62-.07,1v.14c-.07,1.21-.14,2.53-.21,3.75-.07,2.67-.1,5.41-.1,8.15v.07c0,2.91,0,5.86.17,8.77.07,1.39.07,2.81.14,4.16s.21,2.67.31,4c.28,4.06.66,8,1.18,12,.38,3.29.9,6.55,1.49,9.81.66,4.37,1.56,8.67,2.53,12.93.66,2.81,1.32,5.55,2.08,8.36.66,2.46,1.39,4.86,2.11,7.35.69,2.25,1.42,4.47,2.11,6.69.49,1.28.94,2.6,1.39,3.85.66,1.73,1.28,3.5,1.94,5.2s1.39,3.43,2.08,5.13c.52,1.28,1,2.53,1.56,3.78,1,2.26,2,4.47,3.05,6.69,1.32,2.88,2.74,5.65,4.16,8.39,1.18,2.29,2.43,4.54,3.71,6.83C77,394,78.47,396.49,80,399s2.91,4.68,4.47,7V406c.07,0,.14.17.21.24a105,105,0,0,0,11.65,13.14c22.37,21.22,49.52,27.32,70.15,22.64.69-.21,1.42-.31,2.15-.59a44.63,44.63,0,0,0,21.92-12.86,44.15,44.15,0,0,0,6.45-9.64,47.72,47.72,0,0,0,2.91-7.42,61.81,61.81,0,0,0,2.6-17.51V159.21H188.87a3.31,3.31,0,0,1-2.7-1.25,3.62,3.62,0,0,1-.35-4.68v-.07l2.29-3.19,34.08-47.16a3.76,3.76,0,0,1,6.1,0l36.06,50,.31.45a3.53,3.53,0,0,1-.31,4.68V158a6.52,6.52,0,0,1-.59.45,3.42,3.42,0,0,1-2.15.73H248.1V279.78l74.06-97.68-10.85-8.25a3.54,3.54,0,0,1-1.46-2.63,3.69,3.69,0,0,1,2.6-4l0,0,3.75-1.18,55.65-17a3.77,3.77,0,0,1,4.85,3.71l-1.46,61.58v.56a3.55,3.55,0,0,1-3.12,3.54l0,.07a5,5,0,0,1-.73,0,3.49,3.49,0,0,1-2.15-.73l-10.78-8.18L311,272.22l53.23,90.53L376,355.82a3.4,3.4,0,0,1,3-.31,3.63,3.63,0,0,1,2.64,3.88Z"/>
        <path class="cls-4" d="M427.91,44.44,405.07,84A231.65,231.65,0,0,1,508.84,264.41h45.61C550.22,172.21,500.77,91.74,427.91,44.44Z"/>
        <path class="cls-5" d="M508.84,290.43C504.68,366,464.08,432.06,404.36,471.3L427,510.92c73.39-47.17,123.16-128,127.45-220.49Z"/>
      </g>
    </g>
  </g>
</svg>
