<svg width="331" height="256" viewBox="0 0 331 256" fill="none" xmlns="http://www.w3.org/2000/svg">
    <path
        d="M9.64486 36.8882H44.7408V69.6777H54.3856V0H44.7408V29.0991H9.64486V0H0V69.6777H9.64486V36.8882ZM93.4782 71.1107C110.515 71.1107 121.391 60.4557 121.391 43.6486V0H112.359V44.265C112.359 55.9447 105.38 62.9133 93.6826 62.9133C81.9853 62.9133 75.2107 55.9447 75.2107 44.265V0H65.5658V43.6486C65.5658 60.4517 76.4454 71.1107 93.4782 71.1107ZM141.185 11.6797L162.736 69.6737H171.355L192.701 11.4715V69.6737H202.141V0H188.8L167.558 58.6105L145.703 0H132.567V69.6777H141.185V11.6797ZM223.223 50.2089H251.753L258.527 69.6777H268.994L242.925 0H232.663L206.803 69.6777H216.448L223.223 50.2089ZM237.381 9.32612L249.079 42.8321H225.784L237.381 9.32612ZM328.992 69.6777V0H320.165V57.3817L286.303 0H273.784V69.6777H282.611V10.655L317.298 69.6737H328.996L328.992 69.6777ZM25.4992 184.889H0.256555V254.567H25.1945C45.6147 254.567 58.5466 240.838 58.5466 219.32C58.5466 197.802 45.7189 184.893 25.5032 184.893L25.4992 184.889ZM24.4729 246.986H9.90142V192.37H24.2685C39.3531 192.37 48.2804 202.413 48.2804 219.524C48.2804 236.635 39.4533 246.986 24.4729 246.986ZM67.975 254.567H77.6199V184.889H67.975V254.567ZM117.57 226.593H138.199V244.012C134.503 246.678 127.015 248.215 121.162 248.215C105.151 248.215 96.8415 236.635 96.8415 219.012C96.8415 201.388 105.564 191.037 118.701 191.037C128.346 191.037 135.325 196.777 136.968 206.203L146.613 203.95C144.152 191.654 132.863 183.456 118.905 183.456C99.7157 183.456 86.6835 198.006 86.6835 219.524C86.6835 241.042 99.407 256 120.14 256C130.298 256 141.177 252.518 147.026 246.674V219.008H117.574V226.589L117.57 226.593ZM157.344 254.567H166.989V184.889H157.344V254.567ZM229.456 184.889H174.04V192.47H196.926V254.563H206.571V192.47H229.456V184.889ZM245.238 184.889L219.379 254.567H229.023L235.798 235.098H264.328L271.102 254.567H281.569L255.505 184.889H245.243H245.238ZM238.364 227.721L249.961 194.215L261.658 227.721H238.364ZM297.64 246.37V184.889H287.995V254.567H331V246.37H297.64ZM49.5712 110.044C49.5712 99.3892 41.4657 92.6248 28.6379 92.6248H0.312676V162.302H30.0731C43.6184 162.302 52.241 155.026 52.241 143.45C52.241 133.716 46.3924 127.055 37.0521 125.622C44.853 123.777 49.5712 118.041 49.5712 110.048V110.044ZM41.8746 142.421C41.8746 150.107 37.1524 154.718 29.0468 154.718H9.95754V130.125H29.4557C37.2566 130.125 41.8746 134.736 41.8746 142.421ZM27.1988 122.644H9.95754V100.206H27.4033C35.0999 100.206 39.7179 104.304 39.7179 111.273C39.7179 118.242 35.0999 122.648 27.1988 122.648V122.644ZM102.846 154.718H68.0953V130.125H98.7416V122.644H68.0953V100.206H102.233V92.6248H58.4504V162.302H102.85V154.722L102.846 154.718ZM110.126 162.299H119.771V130.33H146.93V122.749H119.771V100.206H152.678V92.6248H110.126V162.302V162.299ZM185.95 163.735C205.244 163.735 218.38 148.982 218.38 127.464C218.38 105.946 205.244 91.1918 185.95 91.1918C166.657 91.1918 153.52 105.845 153.52 127.464C153.52 149.082 166.657 163.735 185.95 163.735ZM185.95 98.7728C199.496 98.7728 208.118 109.84 208.118 127.36C208.118 144.879 199.5 155.946 185.95 155.946C172.401 155.946 163.782 144.779 163.782 127.36C163.782 109.94 172.401 98.7728 185.95 98.7728ZM275.271 111.681C275.271 100.002 266.549 92.6208 252.695 92.6208H224.987V162.299H234.632V131.15H247.151C252.486 131.15 257.004 134.02 259.056 138.939L268.701 162.302H279.99L267.266 135.661C265.727 132.383 263.265 130.334 260.7 129.513C269.527 127.568 275.271 121.111 275.271 111.685V111.681ZM252.081 123.569H234.636V100.206H252.49C260.495 100.206 265.214 104.509 265.214 111.681C265.214 118.854 260.287 123.569 252.077 123.569H252.081ZM329.601 154.718H293.647V130.125H325.099V122.644H293.647V100.206H328.988V92.6248H284.002V162.302H329.605V154.722L329.601 154.718Z"
        fill="#F3F8F7"></path>
</svg>