<svg width="19" height="19" viewBox="0 0 19 19" fill="none" xmlns="http://www.w3.org/2000/svg">
<path d="M18.3492 16.6541L13.5964 11.9006C14.4907 10.6642 15.0246 9.1506 15.0246 7.51149C15.0246 3.36934 11.6544 0 7.51228 0C3.37014 0 0 3.37014 0 7.51149C0 11.6528 3.37014 15.023 7.51228 15.023C9.1514 15.023 10.6642 14.4891 11.9014 13.5948L16.6541 18.3492C16.8883 18.5833 17.1951 18.7 17.502 18.7C17.8089 18.7 18.1158 18.5833 18.35 18.3492C18.8175 17.8808 18.8175 17.1224 18.3492 16.6541ZM7.51149 13.5852C4.16292 13.5852 1.43692 10.86 1.43692 7.51149C1.43692 4.16292 4.16213 1.43772 7.51149 1.43772C10.8592 1.43772 13.5852 4.16292 13.5852 7.51149C13.5852 10.86 10.86 13.5852 7.51149 13.5852Z" fill="black"/>
<path d="M7.51147 2.87625C7.15824 2.87625 6.87213 3.16236 6.87213 3.51559C6.87213 3.86883 7.15744 4.15494 7.51147 4.15494C9.36157 4.15494 10.868 5.66139 10.868 7.51149C10.868 7.86473 11.1541 8.15083 11.5074 8.15083C11.8606 8.15083 12.1467 7.86553 12.1467 7.51149C12.1467 4.95572 10.0673 2.87625 7.51147 2.87625Z" fill="black"/>
</svg>
